<svg width="30" height="30" viewBox="0 0 30 30" fill="none" xmlns="http://www.w3.org/2000/svg">
<mask id="mask0_419_4427" style="mask-type:luminance" maskUnits="userSpaceOnUse" x="0" y="0" width="30" height="30">
<path d="M29.3333 29.3333V0.666666H0.666667V29.3333H29.3333Z" fill="white" stroke="white" stroke-width="1.33333"/>
</mask>
<g mask="url(#mask0_419_4427)">
<path d="M16.7578 6.15234C16.7578 7.12318 15.9708 7.91016 15 7.91016C14.0292 7.91016 13.2422 7.12318 13.2422 6.15234C13.2422 5.1815 14.0292 4.39453 15 4.39453C15.9708 4.39453 16.7578 5.1815 16.7578 6.15234Z" stroke="#331B63" stroke-width="1.2" stroke-miterlimit="10" stroke-linecap="round" stroke-linejoin="round"/>
<path d="M25.6055 9.72656L22.0898 16.7578H23.6667C22.9413 20.0674 20.44 21.2426 16.7578 21.9988V11.1019C18.7995 10.374 20.2734 8.44096 20.2734 6.1524C20.2734 3.52354 18.2174 0.878965 14.9999 0.878965C12.092 0.878965 9.72656 3.24445 9.72656 6.15234C9.72656 8.4409 11.2005 10.3738 13.2422 11.1018V22.0312C8.58838 21.0755 6.79658 18.8716 6.33334 16.7578H7.91016L4.39453 9.72656L0.878906 16.7578H2.75613C2.80629 17.0854 2.87115 17.4114 2.95131 17.7351C4.41059 24.398 10.8598 26.1721 13.2422 27.3633C15 28.2422 15 29.1211 15 29.1211C15 29.1211 15 28.2422 16.7578 27.3633C20.0324 25.726 25.6392 24.1708 27.0487 17.7351C27.1288 17.4114 27.1938 17.0854 27.2439 16.7578H29.1211L25.6055 9.72656Z" stroke="#331B63" stroke-width="1.2" stroke-miterlimit="10" stroke-linecap="round" stroke-linejoin="round"/>
</g>
</svg>
