<svg width="50" height="50" viewBox="0 0 50 50" fill="none" xmlns="http://www.w3.org/2000/svg">
<circle cx="25" cy="25" r="25" fill="white"/>
<path fill-rule="evenodd" clip-rule="evenodd" d="M18.0007 30.5864C17.6102 30.977 17.6103 31.6101 18.0009 32.0006C18.3914 32.3911 19.0246 32.3911 19.4151 32.0005L25.0003 26.4143L30.586 32C30.9765 32.3905 31.6097 32.3905 32.0002 32C32.3907 31.6095 32.3907 30.9763 32.0002 30.5858L26.4144 25L31.9998 19.4136C32.3902 19.023 32.3902 18.3899 31.9996 17.9994C31.6091 17.6089 30.9759 17.6089 30.5854 17.9995L25.0001 23.5858L19.4144 18C19.0239 17.6095 18.3907 17.6095 18.0002 18C17.6096 18.3905 17.6096 19.0237 18.0002 19.4142L23.5861 25.0001L18.0007 30.5864Z" fill="#3B3B3B"/>
</svg>
