<svg width="35" height="37" viewBox="0 0 35 37" fill="none" xmlns="http://www.w3.org/2000/svg">
<g clip-path="url(#clip0_124_334)">
<path d="M30.3523 3.60602C29.4841 2.76051 25.9704 0.0649995 18.1365 0.0288667C18.1365 0.0288667 8.9011 -0.556485 4.40305 3.80836C1.9011 6.45328 1.01926 10.3339 0.923561 15.1396C0.827858 19.9453 0.711647 28.9496 8.92161 31.3921H8.92844L8.92161 35.1211C8.92161 35.1211 8.86692 36.6314 9.81028 36.9349C10.945 37.3107 11.615 36.1617 12.7019 34.9259C13.2966 34.2466 14.1169 33.2494 14.739 32.4906C20.3581 32.9892 24.6716 31.8474 25.1638 31.6812C26.2986 31.291 32.7175 30.4238 33.7566 21.4195C34.8366 12.1261 33.237 6.25816 30.3523 3.60602ZM31.3025 20.7402C30.4206 28.2558 25.2185 28.7328 24.2615 29.058C23.8513 29.1953 20.0574 30.1925 15.2927 29.8673C15.2927 29.8673 11.738 34.3984 10.6306 35.5763C10.2683 35.9593 9.8718 35.9232 9.87864 35.1644C9.87864 34.6658 9.90598 28.9712 9.90598 28.9712C9.89915 28.9712 9.89915 28.9712 9.90598 28.9712C2.947 26.9334 3.35716 19.266 3.43235 15.2552C3.50755 11.2445 4.22532 7.95641 6.34446 5.74508C10.1521 2.09566 17.9929 2.63766 17.9929 2.63766C24.6169 2.66656 27.7888 4.77672 28.5271 5.48492C30.9675 7.69625 32.2116 12.9861 31.3025 20.7402ZM21.8005 14.9011C21.8279 15.5226 20.946 15.566 20.9187 14.9445C20.8435 13.3546 20.1394 12.5814 18.6902 12.4947C18.1023 12.4586 18.157 11.5263 18.738 11.5625C20.6452 11.6709 21.7048 12.8271 21.8005 14.9011ZM23.1882 15.7177C23.2566 12.6537 21.445 10.2545 18.0066 9.98707C17.4255 9.94371 17.487 9.01148 18.0681 9.05484C22.0329 9.35836 24.1452 12.2418 24.07 15.7394C24.0632 16.3609 23.1745 16.332 23.1882 15.7177ZM26.4011 16.6861C26.4079 17.3076 25.5193 17.3148 25.5193 16.6933C25.4782 10.8037 21.7663 7.59508 17.2615 7.55894C16.6804 7.55172 16.6804 6.62672 17.2615 6.62672C22.2995 6.66285 26.3533 10.3412 26.4011 16.6861ZM25.6286 23.7754V23.7898C24.8904 25.1629 23.5095 26.6804 22.0876 26.1962L22.074 26.1746C20.6316 25.7482 17.2341 23.8982 15.0876 22.0916C13.9802 21.1666 12.9685 20.0753 12.1892 19.0275C11.4851 18.0953 10.7741 16.9896 10.0837 15.6599C8.62766 12.8777 8.30637 11.6347 8.30637 11.6347C7.84837 10.1316 9.27708 8.67183 10.5827 7.89137H10.5964C11.2253 7.54449 11.8269 7.66012 12.2302 8.1732C12.2302 8.1732 13.0779 9.24273 13.4402 9.77027C13.782 10.2617 14.24 11.0494 14.4792 11.4902C14.8962 12.2779 14.6365 13.08 14.2263 13.4125L13.406 14.1062C12.989 14.4603 13.0437 15.1179 13.0437 15.1179C13.0437 15.1179 14.2605 19.9814 18.8064 21.2099C18.8064 21.2099 19.4284 21.2677 19.7634 20.8269L20.4197 19.9597C20.7341 19.5261 21.4929 19.2515 22.238 19.6923C23.2429 20.2921 24.5212 21.2244 25.3689 22.0699C25.8474 22.4818 25.9568 23.1105 25.6286 23.7754Z" fill="#7E539E"/>
</g>
<defs>
<clipPath id="clip0_124_334">
<rect width="35" height="37" fill="white"/>
</clipPath>
</defs>
</svg>
