<svg width="26" height="26" viewBox="0 0 26 26" fill="none" xmlns="http://www.w3.org/2000/svg">
<path d="M23.1562 6.73246H22.8801V5.35461C22.8798 5.03149 22.7513 4.7217 22.5228 4.49322C22.2943 4.26473 21.9845 4.13622 21.6614 4.13586H20.5886C20.2655 4.13622 19.9557 4.26473 19.7272 4.49322C19.4987 4.7217 19.3702 5.03149 19.3699 5.35461V6.73246H18.0295L17.6881 5.36811C17.6001 5.01656 17.3972 4.70445 17.1117 4.48124C16.8262 4.25803 16.4743 4.13648 16.1119 4.13586H9.88806C9.52548 4.13651 9.1735 4.25821 8.88796 4.48166C8.60242 4.70511 8.39967 5.01751 8.31187 5.3693L7.97052 6.73246H6.63013V5.35461C6.62977 5.03149 6.50126 4.7217 6.27277 4.49322C6.04429 4.26473 5.7345 4.13622 5.41138 4.13586H4.33862C4.0155 4.13622 3.70571 4.26473 3.47723 4.49322C3.24874 4.7217 3.12023 5.03149 3.11987 5.35461V6.73246C2.93955 6.7 2.75434 6.70694 2.57695 6.75279C2.39956 6.79865 2.23419 6.88233 2.09219 6.99811C1.95018 7.11389 1.83491 7.25901 1.75426 7.42353C1.67362 7.58805 1.62953 7.76807 1.625 7.95123V9.45996C1.62578 9.6831 1.68798 9.90172 1.80477 10.0919C1.92157 10.282 2.08845 10.4363 2.28714 10.5379V19.8911C2.28775 20.4142 2.4958 20.9157 2.86567 21.2855C3.23553 21.6554 3.737 21.8635 4.26007 21.8641H21.7399C22.263 21.8635 22.7645 21.6554 23.1343 21.2855C23.5042 20.9157 23.7123 20.4142 23.7129 19.8911V10.5379C23.9115 10.4363 24.0784 10.282 24.1952 10.0919C24.312 9.90172 24.3742 9.6831 24.375 9.45996V7.95121C24.3746 7.62808 24.2461 7.31829 24.0176 7.08981C23.7892 6.86133 23.4794 6.73281 23.1562 6.73246ZM20.1824 5.35461C20.1824 5.24689 20.2253 5.1436 20.3014 5.06743C20.3776 4.99126 20.4809 4.94844 20.5886 4.94836H21.6614C21.7691 4.94844 21.8724 4.99126 21.9486 5.06743C22.0247 5.1436 22.0676 5.24689 22.0676 5.35461V6.73246H20.1824V5.35461ZM9.09976 5.56805C9.14336 5.39172 9.2446 5.23499 9.3874 5.12273C9.53021 5.01046 9.70641 4.9491 9.88806 4.94836H16.1119C16.2934 4.94907 16.4695 5.01028 16.6123 5.12231C16.755 5.23433 16.8564 5.39077 16.9002 5.56686L17.1921 6.73246H8.80797L9.09976 5.56805ZM3.93237 5.35461C3.93245 5.24689 3.97527 5.1436 4.05144 5.06743C4.12761 4.99126 4.2309 4.94844 4.33862 4.94836H5.41138C5.5191 4.94844 5.62239 4.99126 5.69856 5.06743C5.77473 5.1436 5.81755 5.24689 5.81763 5.35461V6.73246H3.93237V5.35461ZM2.4375 7.95121C2.43757 7.84348 2.4804 7.74019 2.55657 7.66402C2.63274 7.58785 2.73603 7.54503 2.84375 7.54496H23.1562C23.264 7.54503 23.3673 7.58785 23.4434 7.66402C23.5196 7.74019 23.5624 7.84348 23.5625 7.95121V9.45996C23.5624 9.56768 23.5196 9.67097 23.4434 9.74714C23.3673 9.82332 23.264 9.86614 23.1562 9.86621H2.84375C2.73603 9.86614 2.63274 9.82332 2.55657 9.74714C2.4804 9.67097 2.43757 9.56768 2.4375 9.45996V7.95121ZM21.7399 21.0516H4.26007C3.95241 21.0513 3.65744 20.9289 3.43988 20.7113C3.22233 20.4938 3.09997 20.1988 3.09964 19.8911V10.6787H22.9004V19.8911C22.9 20.1988 22.7777 20.4938 22.5601 20.7113C22.3426 20.9289 22.0476 21.0513 21.7399 21.0516Z" fill="#331B63"/>
<path d="M20.5543 12.6338H19.9061V11.9856C19.904 11.8792 19.8603 11.7779 19.7843 11.7034C19.7083 11.6289 19.6062 11.5872 19.4998 11.5872C19.3934 11.5872 19.2913 11.6289 19.2153 11.7034C19.1393 11.7779 19.0956 11.8792 19.0936 11.9856V12.6338H18.4453C18.3376 12.6338 18.2342 12.6766 18.1581 12.7528C18.0819 12.829 18.0391 12.9323 18.0391 13.0401C18.0391 13.1478 18.0819 13.2511 18.1581 13.3273C18.2342 13.4035 18.3376 13.4463 18.4453 13.4463H19.0936V14.0946C19.0936 14.2023 19.1364 14.3056 19.2126 14.3818C19.2887 14.458 19.3921 14.5008 19.4998 14.5008C19.6076 14.5008 19.7109 14.458 19.7871 14.3818C19.8633 14.3056 19.9061 14.2023 19.9061 14.0946V13.4463H20.5543C20.6607 13.4442 20.762 13.4005 20.8365 13.3246C20.911 13.2486 20.9527 13.1464 20.9527 13.0401C20.9527 12.9337 20.911 12.8315 20.8365 12.7556C20.762 12.6796 20.6607 12.6359 20.5543 12.6338Z" fill="#331B63"/>
<path d="M7.55428 12.6338H5.44527C5.3389 12.6359 5.23758 12.6796 5.16309 12.7555C5.0886 12.8315 5.04687 12.9337 5.04688 13.0401C5.04688 13.1464 5.08861 13.2486 5.16311 13.3245C5.2376 13.4005 5.33892 13.4442 5.44529 13.4463H7.55428C7.66065 13.4442 7.76197 13.4005 7.83646 13.3245C7.91095 13.2486 7.95268 13.1464 7.95268 13.04C7.95268 12.9336 7.91095 12.8315 7.83646 12.7555C7.76197 12.6796 7.66065 12.6359 7.55428 12.6338Z" fill="#331B63"/>
<path d="M15.3929 14.7754L14.2733 14.4647L15.5302 13.2246C15.6063 13.1495 15.6584 13.0534 15.6798 12.9487C15.7012 12.8439 15.691 12.7352 15.6504 12.6362C15.6098 12.5373 15.5407 12.4527 15.4519 12.3931C15.3631 12.3336 15.2586 12.3018 15.1517 12.3018H12.4389C12.2869 12.3013 12.1379 12.3434 12.0086 12.4233C11.8793 12.5031 11.7749 12.6176 11.7073 12.7536L10.27 15.6287C10.2292 15.7101 10.2097 15.8005 10.2133 15.8914C10.2169 15.9823 10.2434 16.0709 10.2904 16.1488C10.3374 16.2267 10.4034 16.2915 10.4821 16.3371C10.5609 16.3826 10.6499 16.4076 10.7409 16.4095L12.4936 16.446L11.935 18.7514C11.9084 18.8706 11.9229 18.9953 11.9761 19.1052C12.0293 19.2151 12.1181 19.3038 12.2281 19.3569C12.338 19.41 12.4628 19.4243 12.5819 19.3976C12.7011 19.3708 12.8077 19.3046 12.8844 19.2096L15.6746 15.6256C15.728 15.5554 15.7635 15.4732 15.778 15.3862C15.7925 15.2992 15.7856 15.2099 15.7578 15.1262C15.7301 15.0425 15.6824 14.9668 15.6188 14.9056C15.5552 14.8445 15.4777 14.7998 15.3929 14.7754ZM13.024 17.7076L13.3636 16.3059C13.3818 16.2276 13.3823 16.1462 13.3652 16.0677C13.348 15.9891 13.3137 15.9153 13.2645 15.8517C13.2154 15.788 13.1528 15.7361 13.0811 15.6996C13.0095 15.6631 12.9306 15.6429 12.8503 15.6406L11.19 15.6061L12.4389 13.1142H14.4852L13.3672 14.2175C13.3009 14.2844 13.2531 14.3673 13.2285 14.4582C13.2039 14.549 13.2034 14.6448 13.2269 14.7359C13.2505 14.8271 13.2974 14.9105 13.3629 14.9781C13.4285 15.0456 13.5105 15.095 13.6009 15.1213L14.7823 15.449L13.024 17.7076Z" fill="#331B63"/>
</svg>
