<svg width="22" height="22" viewBox="0 0 22 22" fill="none" xmlns="http://www.w3.org/2000/svg">
<g clip-path="url(#clip0_473_4933)">
<path d="M9.66287 6.95544C9.5526 6.95542 9.44481 6.9227 9.35314 6.86141C9.26146 6.80012 9.19002 6.71303 9.14785 6.61114C9.10568 6.50925 9.09467 6.39715 9.11621 6.289C9.13776 6.18085 9.19089 6.08152 9.26889 6.00358C9.72823 5.54517 10.3507 5.28772 10.9996 5.28772C11.6486 5.28772 12.271 5.54517 12.7303 6.00358C12.8319 6.10872 12.8881 6.24955 12.8868 6.39573C12.8855 6.54191 12.8269 6.68174 12.7235 6.78511C12.6202 6.88848 12.4803 6.94712 12.3342 6.94839C12.188 6.94966 12.0471 6.89346 11.942 6.7919C11.6917 6.54272 11.3528 6.40282 10.9996 6.40282C10.6464 6.40282 10.3076 6.54272 10.0572 6.7919C10.0055 6.84373 9.94398 6.88485 9.87632 6.91292C9.80865 6.94098 9.73612 6.95543 9.66287 6.95544Z" fill="#331B63"/>
<path d="M16.0748 3.21633C15.9271 3.2163 15.7854 3.15761 15.6809 3.05317C14.4386 1.81286 12.7548 1.11623 10.9994 1.11623C9.24392 1.11623 7.5602 1.81286 6.31791 3.05317C6.26648 3.10641 6.20496 3.14889 6.13694 3.17811C6.06892 3.20733 5.99576 3.22271 5.92174 3.22335C5.84771 3.22399 5.7743 3.20989 5.70578 3.18185C5.63726 3.15382 5.57502 3.11242 5.52267 3.06008C5.47032 3.00773 5.42892 2.94548 5.40089 2.87697C5.37286 2.80845 5.35875 2.73503 5.3594 2.66101C5.36004 2.58698 5.37542 2.51382 5.40464 2.4458C5.43386 2.37779 5.47633 2.31627 5.52958 2.26484C6.98092 0.815404 8.94822 0.00128174 10.9994 0.00128174C13.0505 0.00128174 15.0178 0.815404 16.4692 2.26484C16.5472 2.34281 16.6003 2.44217 16.6219 2.55035C16.6434 2.65853 16.6324 2.77067 16.5901 2.87257C16.5479 2.97448 16.4764 3.06157 16.3847 3.12283C16.293 3.18408 16.1851 3.21675 16.0748 3.2167V3.21633Z" fill="#331B63"/>
<path d="M14.206 5.08589C14.0582 5.08585 13.9165 5.02717 13.812 4.92272C13.0655 4.17829 12.0543 3.76025 11.0001 3.76025C9.94586 3.76025 8.93464 4.17829 8.18816 4.92272C8.08203 5.01909 7.94286 5.07087 7.79956 5.06732C7.65625 5.06376 7.51982 5.00514 7.4186 4.90364C7.31737 4.80213 7.25914 4.66553 7.25599 4.52221C7.25285 4.3789 7.30502 4.23987 7.40169 4.13402C8.35727 3.18055 9.65205 2.64508 11.002 2.64508C12.3519 2.64508 13.6466 3.18055 14.6022 4.13402C14.6802 4.21199 14.7334 4.31135 14.7549 4.41953C14.7764 4.52771 14.7654 4.63985 14.7232 4.74176C14.681 4.84366 14.6095 4.93075 14.5177 4.99201C14.426 5.05327 14.3182 5.08594 14.2079 5.08589H14.206Z" fill="#331B63"/>
<path d="M18.5387 21.9991C17.6408 22.0004 16.7773 21.6541 16.1291 21.0327C15.7574 20.677 15.4389 20.3637 15.1564 20.0879C13.4764 18.4458 13.2932 18.2938 12.3224 18.2938H9.67789C8.70707 18.2938 8.52383 18.4458 6.84385 20.0879C6.56137 20.364 6.24136 20.677 5.87117 21.0327C5.3586 21.526 4.70671 21.8497 4.00391 21.9598C3.30111 22.07 2.58144 21.9613 1.94252 21.6485C1.30361 21.3357 0.776379 20.8339 0.432362 20.2113C0.0883454 19.5886 -0.0558054 18.8752 0.0194658 18.1678L0.614151 12.5833C0.766167 11.1531 1.39096 9.85188 2.3733 8.91934C3.37683 7.96561 4.71488 7.44043 6.13952 7.44043C7.03006 7.4409 7.9078 7.65247 8.70075 8.05779L9.20066 8.28079C9.76752 8.53222 10.3808 8.66212 11.0009 8.66212C11.621 8.66212 12.2342 8.53222 12.8011 8.28079L13.301 8.05779C14.0939 7.65242 14.9717 7.44084 15.8622 7.44043C17.2865 7.44043 18.6242 7.96561 19.6285 8.91934C20.6108 9.85188 21.2356 11.1531 21.3876 12.5833L21.9823 18.1678C22.0342 18.6508 21.9839 19.1394 21.8345 19.6016C21.6852 20.0639 21.4402 20.4896 21.1156 20.851C20.7909 21.2123 20.3938 21.5013 19.9501 21.6991C19.5064 21.8969 19.026 21.9991 18.5402 21.9991H18.5387ZM9.67789 17.1784H12.3224C13.7753 17.1784 14.2328 17.6244 15.9358 19.2903C16.2168 19.5649 16.5354 19.876 16.9022 20.2288C17.2499 20.5634 17.6922 20.7829 18.1689 20.8576C18.6457 20.9324 19.1339 20.8587 19.5673 20.6465C20.0008 20.4344 20.3585 20.0941 20.5919 19.6718C20.8254 19.2494 20.9234 18.7655 20.8725 18.2856L20.2778 12.7012C20.0176 10.2604 18.202 8.55546 15.8611 8.55546C15.143 8.55293 14.4348 8.72419 13.7972 9.05463C13.7875 9.05983 13.7775 9.06429 13.7675 9.06875L13.2527 9.29733C12.5435 9.61224 11.7761 9.77495 11.0001 9.77495C10.2242 9.77495 9.45679 9.61224 8.74758 9.29733L8.23281 9.06875C8.22277 9.06429 8.21274 9.05983 8.20307 9.05463C7.5651 8.72401 6.85658 8.55275 6.13803 8.55546C3.79646 8.55546 1.98118 10.2604 1.72138 12.7012L1.1267 18.2856C1.0755 18.7657 1.17326 19.2498 1.4067 19.6724C1.64014 20.0949 1.99795 20.4354 2.43157 20.6476C2.86518 20.8598 3.35359 20.9335 3.8305 20.8585C4.3074 20.7836 4.74969 20.5637 5.09733 20.2288C5.46418 19.876 5.78271 19.5649 6.0637 19.2903C7.7671 17.6259 8.225 17.1784 9.67789 17.1784Z" fill="#331B63"/>
<path d="M6.1376 15.4233C5.98973 15.4233 5.84793 15.3646 5.74337 15.2601C5.63882 15.1555 5.58008 15.0137 5.58008 14.8658V11.271C5.58008 11.1231 5.63882 10.9813 5.74337 10.8767C5.84793 10.7722 5.98973 10.7134 6.1376 10.7134C6.28546 10.7134 6.42726 10.7722 6.53182 10.8767C6.63637 10.9813 6.69511 11.1231 6.69511 11.271V14.8658C6.69511 15.0137 6.63637 15.1555 6.53182 15.2601C6.42726 15.3646 6.28546 15.4233 6.1376 15.4233Z" fill="#331B63"/>
<path d="M7.93559 13.6263H4.34072C4.19286 13.6263 4.05105 13.5675 3.9465 13.463C3.84194 13.3584 3.7832 13.2166 3.7832 13.0687C3.7832 12.9209 3.84194 12.7791 3.9465 12.6745C4.05105 12.57 4.19286 12.5112 4.34072 12.5112H7.93559C8.08345 12.5112 8.22526 12.57 8.32981 12.6745C8.43437 12.7791 8.49311 12.9209 8.49311 13.0687C8.49311 13.2166 8.43437 13.3584 8.32981 13.463C8.22526 13.5675 8.08345 13.6263 7.93559 13.6263Z" fill="#331B63"/>
<path d="M14.2342 15.4241C14.1512 15.424 14.0687 15.4131 13.9885 15.3917C13.7576 15.3296 13.5589 15.182 13.4328 14.9789C13.3066 14.7757 13.2624 14.5322 13.3092 14.2976C13.356 14.0631 13.4902 13.8551 13.6846 13.7159C13.879 13.5766 14.1191 13.5165 14.3562 13.5477C14.5933 13.5789 14.8096 13.6991 14.9614 13.8839C15.1132 14.0688 15.189 14.3044 15.1734 14.543C15.1579 14.7816 15.0522 15.0055 14.8778 15.1691C14.7034 15.3327 14.4733 15.4238 14.2342 15.4241Z" fill="#331B63"/>
<path d="M17.4884 15.4237C17.2804 15.4234 17.0783 15.3544 16.9135 15.2275C16.7486 15.1006 16.6303 14.9228 16.5768 14.7218C16.5232 14.5208 16.5375 14.3077 16.6174 14.1157C16.6972 13.9236 16.8382 13.7632 17.0185 13.6594C17.1988 13.5556 17.4083 13.5142 17.6145 13.5416C17.8207 13.569 18.0121 13.6636 18.1591 13.8109C18.306 13.9581 18.4003 14.1497 18.4273 14.356C18.4543 14.5622 18.4125 14.7716 18.3083 14.9517C18.2257 15.096 18.1063 15.2157 17.9622 15.2987C17.8182 15.3816 17.6546 15.4248 17.4884 15.4237Z" fill="#331B63"/>
<path d="M15.8607 12.6038C15.6737 12.6041 15.4908 12.5489 15.3352 12.4452C15.1796 12.3415 15.0582 12.194 14.9864 12.0214C14.9147 11.8487 14.8957 11.6586 14.932 11.4751C14.9683 11.2917 15.0582 11.1231 15.1904 10.9908C15.3225 10.8585 15.4909 10.7683 15.6743 10.7317C15.8577 10.6951 16.0478 10.7138 16.2206 10.7852C16.3934 10.8567 16.5411 10.9779 16.645 11.1334C16.7489 11.2888 16.8044 11.4716 16.8044 11.6586C16.8041 11.9089 16.7047 12.149 16.5278 12.3261C16.3509 12.5033 16.1111 12.6031 15.8607 12.6038Z" fill="#331B63"/>
</g>
<defs>
<clipPath id="clip0_473_4933">
<rect width="22" height="22" fill="white"/>
</clipPath>
</defs>
</svg>
