<svg width="24" height="24" viewBox="0 0 24 24" fill="none" xmlns="http://www.w3.org/2000/svg">
<path d="M4.125 22.125H4.1625C4.24954 22.5482 4.47982 22.9285 4.81453 23.2017C5.14924 23.475 5.56792 23.6245 6 23.625H18C18.4321 23.6245 18.8508 23.475 19.1855 23.2017C19.5202 22.9285 19.7505 22.5482 19.8375 22.125H19.875C20.1734 22.125 20.4595 22.0065 20.6705 21.7955C20.8815 21.5845 21 21.2984 21 21V18C21 17.7016 20.8815 17.4155 20.6705 17.2045C20.4595 16.9935 20.1734 16.875 19.875 16.875V7.125C20.1734 7.125 20.4595 7.00647 20.6705 6.7955C20.8815 6.58452 21 6.29837 21 6V3C21 2.70163 20.8815 2.41548 20.6705 2.2045C20.4595 1.99353 20.1734 1.875 19.875 1.875H19.8375C19.7505 1.45178 19.5202 1.0715 19.1855 0.798269C18.8508 0.525034 18.4321 0.375545 18 0.375H6C5.56792 0.375545 5.14924 0.525034 4.81453 0.798269C4.47982 1.0715 4.24954 1.45178 4.1625 1.875H4.125C3.82663 1.875 3.54048 1.99353 3.3295 2.2045C3.11853 2.41548 3 2.70163 3 3V6C3 6.29837 3.11853 6.58452 3.3295 6.7955C3.54048 7.00647 3.82663 7.125 4.125 7.125V16.875C3.82663 16.875 3.54048 16.9935 3.3295 17.2045C3.11853 17.4155 3 17.7016 3 18V21C3 21.2984 3.11853 21.5845 3.3295 21.7955C3.54048 22.0065 3.82663 22.125 4.125 22.125ZM18 22.875H6C5.76692 22.8743 5.53984 22.8011 5.35027 22.6655C5.1607 22.5299 5.01805 22.3386 4.94212 22.1182C5.22755 22.1012 5.49576 21.9761 5.69226 21.7684C5.88876 21.5607 5.99879 21.2859 6 21V20.625H18V21C18.0012 21.2859 18.1112 21.5607 18.3077 21.7684C18.5042 21.9761 18.7725 22.1012 19.0579 22.1182C18.9819 22.3386 18.8393 22.5299 18.6497 22.6655C18.4602 22.8011 18.2331 22.8743 18 22.875ZM6 19.125H18V19.875H6V19.125ZM20.25 18V21C20.25 21.0995 20.2105 21.1948 20.1402 21.2652C20.0698 21.3355 19.9745 21.375 19.875 21.375H19.125C19.0255 21.375 18.9302 21.3355 18.8598 21.2652C18.7895 21.1948 18.75 21.0995 18.75 21V18C18.75 17.9005 18.7895 17.8052 18.8598 17.7348C18.9302 17.6645 19.0255 17.625 19.125 17.625H19.875C19.9745 17.625 20.0698 17.6645 20.1402 17.7348C20.2105 17.8052 20.25 17.9005 20.25 18ZM20.25 3V6C20.25 6.09946 20.2105 6.19484 20.1402 6.26517C20.0698 6.33549 19.9745 6.375 19.875 6.375H19.125C19.0255 6.375 18.9302 6.33549 18.8598 6.26517C18.7895 6.19484 18.75 6.09946 18.75 6V3C18.75 2.90054 18.7895 2.80516 18.8598 2.73484C18.9302 2.66451 19.0255 2.625 19.125 2.625H19.875C19.9745 2.625 20.0698 2.66451 20.1402 2.73484C20.2105 2.80516 20.25 2.90054 20.25 3ZM6 1.125H18C18.2331 1.12568 18.4602 1.19891 18.6497 1.33452C18.8393 1.47012 18.9819 1.66138 19.0579 1.88175C18.7725 1.89881 18.5042 2.02391 18.3077 2.23162C18.1112 2.43933 18.0012 2.71407 18 3V3.375H6V3C5.99879 2.71407 5.88876 2.43933 5.69226 2.23162C5.49576 2.02391 5.22755 1.89881 4.94212 1.88175C5.01805 1.66138 5.1607 1.47012 5.35027 1.33452C5.53984 1.19891 5.76692 1.12568 6 1.125ZM18 4.875H6V4.125H18V4.875ZM3.75 6V3C3.75 2.90054 3.78951 2.80516 3.85984 2.73484C3.93016 2.66451 4.02554 2.625 4.125 2.625H4.875C4.97446 2.625 5.06984 2.66451 5.14016 2.73484C5.21049 2.80516 5.25 2.90054 5.25 3V6C5.25 6.09946 5.21049 6.19484 5.14016 6.26517C5.06984 6.33549 4.97446 6.375 4.875 6.375H4.125C4.02554 6.375 3.93016 6.33549 3.85984 6.26517C3.78951 6.19484 3.75 6.09946 3.75 6ZM4.875 7.125C5.17337 7.125 5.45952 7.00647 5.6705 6.7955C5.88147 6.58452 6 6.29837 6 6V5.625H18V6C18 6.29837 18.1185 6.58452 18.3295 6.7955C18.5405 7.00647 18.8266 7.125 19.125 7.125V16.875C18.8266 16.875 18.5405 16.9935 18.3295 17.2045C18.1185 17.4155 18 17.7016 18 18V18.375H6V18C6 17.7016 5.88147 17.4155 5.6705 17.2045C5.45952 16.9935 5.17337 16.875 4.875 16.875V7.125ZM3.75 18C3.75 17.9005 3.78951 17.8052 3.85984 17.7348C3.93016 17.6645 4.02554 17.625 4.125 17.625H4.875C4.97446 17.625 5.06984 17.6645 5.14016 17.7348C5.21049 17.8052 5.25 17.9005 5.25 18V21C5.25 21.0995 5.21049 21.1948 5.14016 21.2652C5.06984 21.3355 4.97446 21.375 4.875 21.375H4.125C4.02554 21.375 3.93016 21.3355 3.85984 21.2652C3.78951 21.1948 3.75 21.0995 3.75 21V18Z" fill="#331B63"/>
<path d="M7.125 17.625H10.875C10.9745 17.625 11.0698 17.5855 11.1402 17.5152C11.2105 17.4448 11.25 17.3495 11.25 17.25V8.25C11.25 8.15054 11.2105 8.05516 11.1402 7.98483C11.0698 7.91451 10.9745 7.875 10.875 7.875H10.125V6.75C10.125 6.65054 10.0855 6.55516 10.0152 6.48483C9.94484 6.41451 9.84946 6.375 9.75 6.375H8.25C8.15054 6.375 8.05516 6.41451 7.98483 6.48483C7.91451 6.55516 7.875 6.65054 7.875 6.75V7.875H7.125C7.02554 7.875 6.93016 7.91451 6.85983 7.98483C6.78951 8.05516 6.75 8.15054 6.75 8.25V17.25C6.75 17.3495 6.78951 17.4448 6.85983 17.5152C6.93016 17.5855 7.02554 17.625 7.125 17.625ZM7.5 16.875V16.125H10.5V16.875H7.5ZM10.5 11.625V12.375H7.5V11.625H10.5ZM7.5 10.875V10.125H10.5V10.875H7.5ZM10.5 13.125V13.875H7.5V13.125H10.5ZM10.5 14.625V15.375H7.5V14.625H10.5ZM8.625 7.125H9.375V7.875H8.625V7.125ZM10.5 8.625V9.375H7.5V8.625H10.5Z" fill="#331B63"/>
<path d="M13.1251 12.75H14.1448L13.5114 15.2839C13.4902 15.3683 13.4991 15.4575 13.5366 15.5361C13.574 15.6148 13.6376 15.6779 13.7165 15.7147C13.7661 15.7381 13.8203 15.7501 13.8751 15.75C13.9343 15.75 13.9926 15.736 14.0454 15.7091C14.0981 15.6823 14.1437 15.6433 14.1785 15.5955L17.1785 11.4705C17.2192 11.4145 17.2436 11.3484 17.249 11.2795C17.2545 11.2105 17.2407 11.1414 17.2093 11.0798C17.1779 11.0181 17.1301 10.9664 17.0711 10.9302C17.0121 10.8941 16.9443 10.875 16.8751 10.875H16.1825L16.4964 8.67824C16.5081 8.59676 16.4928 8.51369 16.4526 8.44182C16.4125 8.36996 16.3498 8.3133 16.2743 8.28058C16.1987 8.24787 16.1145 8.24092 16.0346 8.2608C15.9548 8.28069 15.8837 8.3263 15.8323 8.39061L12.8323 12.1406C12.7881 12.1958 12.7604 12.2623 12.7524 12.3325C12.7444 12.4027 12.7564 12.4737 12.787 12.5374C12.8176 12.6011 12.8656 12.6549 12.9254 12.6925C12.9852 12.7301 13.0545 12.75 13.1251 12.75ZM15.5596 9.93224L15.3789 11.1967C15.3713 11.2499 15.3752 11.3042 15.3903 11.3557C15.4055 11.4073 15.4315 11.455 15.4667 11.4956C15.5019 11.5362 15.5455 11.5688 15.5944 11.5911C15.6433 11.6134 15.6964 11.625 15.7501 11.625H16.1386L14.7069 13.5937L14.9889 12.4654C15.0026 12.4101 15.0036 12.3525 14.9917 12.2968C14.9798 12.2411 14.9555 12.1889 14.9204 12.144C14.8853 12.0992 14.8405 12.0629 14.7894 12.038C14.7382 12.013 14.6821 12 14.6251 12H13.9055L15.5596 9.93224Z" fill="#331B63"/>
</svg>
