<svg width="28" height="28" viewBox="0 0 28 28" fill="none" xmlns="http://www.w3.org/2000/svg">
<path d="M12.0359 23.6202H3.56088C3.24026 23.6198 2.93288 23.4923 2.70617 23.2656C2.47946 23.0389 2.35193 22.7315 2.35156 22.4109V8.28574C2.35186 7.9651 2.47936 7.65767 2.70609 7.43095C2.93282 7.20422 3.24024 7.07671 3.56088 7.07642H12.0396C12.3602 7.07671 12.6676 7.20422 12.8944 7.43095C13.1211 7.65767 13.2486 7.9651 13.2489 8.28574V22.4131C13.2469 22.7337 13.1183 23.0404 12.8911 23.2665C12.6638 23.4927 12.3565 23.6198 12.0359 23.6202ZM3.56088 7.97242C3.47781 7.97249 3.39816 8.00552 3.33941 8.06427C3.28067 8.12301 3.24764 8.20266 3.24756 8.28574V22.4109C3.24711 22.4522 3.25491 22.4931 3.2705 22.5313C3.28608 22.5695 3.30914 22.6043 3.33833 22.6334C3.36751 22.6626 3.40223 22.6857 3.44045 22.7013C3.47867 22.7169 3.51961 22.7247 3.56088 22.7242H12.0359C12.1192 22.7241 12.1991 22.691 12.2582 22.6323C12.3173 22.5736 12.3508 22.4939 12.3515 22.4106V8.28574C12.3514 8.2029 12.3186 8.12346 12.2601 8.06476C12.2017 8.00606 12.1224 7.97286 12.0396 7.97242H3.56088Z" fill="#331B63"/>
<path d="M11.2913 7.97248H9.43823C9.31942 7.97248 9.20547 7.92528 9.12145 7.84127C9.03743 7.75725 8.99023 7.6433 8.99023 7.52448V6.09368C8.99066 5.87614 9.07112 5.66636 9.21628 5.50432C9.36143 5.34228 9.56113 5.23931 9.77731 5.21504C10.1664 5.17262 10.5589 5.17262 10.948 5.21504C11.1646 5.23887 11.3647 5.3417 11.5103 5.50385C11.6558 5.66599 11.7364 5.87609 11.7368 6.09396L11.7393 7.52392C11.7393 7.64274 11.6921 7.75669 11.6081 7.84071C11.524 7.92472 11.4101 7.97192 11.2913 7.97192V7.97248ZM9.88623 7.07648H10.8424L10.8408 6.10404C10.5235 6.06988 10.2035 6.06988 9.88623 6.10404V7.07648Z" fill="#331B63"/>
<path d="M6.37107 7.9725H4.51831C4.3995 7.9725 4.28555 7.9253 4.20153 7.84128C4.11751 7.75726 4.07031 7.64331 4.07031 7.5245V6.20374C4.07031 6.08492 4.11751 5.97097 4.20153 5.88695C4.28555 5.80294 4.3995 5.75574 4.51831 5.75574H6.37107C6.48989 5.75574 6.60384 5.80294 6.68786 5.88695C6.77187 5.97097 6.81907 6.08492 6.81907 6.20374V7.5245C6.81907 7.64331 6.77187 7.75726 6.68786 7.84128C6.60384 7.9253 6.48989 7.9725 6.37107 7.9725ZM4.96631 7.0765H5.92307V6.65174H4.96631V7.0765Z" fill="#331B63"/>
<path d="M6.99009 6.65168H3.89917C3.78035 6.65168 3.6664 6.60448 3.58239 6.52046C3.49837 6.43645 3.45117 6.3225 3.45117 6.20368V4.82776C3.45117 4.70894 3.49837 4.59499 3.58239 4.51098C3.6664 4.42696 3.78035 4.37976 3.89917 4.37976H6.99009C7.10891 4.37976 7.22286 4.42696 7.30688 4.51098C7.39089 4.59499 7.43809 4.70894 7.43809 4.82776V6.20368C7.43809 6.3225 7.39089 6.43645 7.30688 6.52046C7.22286 6.60448 7.10891 6.65168 6.99009 6.65168ZM4.34717 5.75568H6.54209V5.27576H4.34717V5.75568Z" fill="#331B63"/>
<path d="M12.7972 13.188H2.79956C2.68075 13.188 2.5668 13.1408 2.48278 13.0568C2.39876 12.9728 2.35156 12.8588 2.35156 12.74C2.35156 12.6212 2.39876 12.5072 2.48278 12.4232C2.5668 12.3392 2.68075 12.292 2.79956 12.292H12.7972C12.9161 12.292 13.03 12.3392 13.114 12.4232C13.198 12.5072 13.2452 12.6212 13.2452 12.74C13.2452 12.8588 13.198 12.9728 13.114 13.0568C13.03 13.1408 12.9161 13.188 12.7972 13.188Z" fill="#331B63"/>
<path d="M5.44409 11.7262C5.32528 11.7262 5.21133 11.679 5.12731 11.5949C5.04329 11.5109 4.99609 11.397 4.99609 11.2782V8.98523C4.99609 8.86641 5.04329 8.75246 5.12731 8.66845C5.21133 8.58443 5.32528 8.53723 5.44409 8.53723C5.56291 8.53723 5.67686 8.58443 5.76088 8.66845C5.84489 8.75246 5.89209 8.86641 5.89209 8.98523V11.2782C5.89209 11.397 5.84489 11.5109 5.76088 11.5949C5.67686 11.679 5.56291 11.7262 5.44409 11.7262Z" fill="#331B63"/>
<path d="M6.59053 10.5795H4.29761C4.17879 10.5795 4.06484 10.5323 3.98083 10.4483C3.89681 10.3642 3.84961 10.2503 3.84961 10.1315C3.84961 10.0127 3.89681 9.8987 3.98083 9.81469C4.06484 9.73067 4.17879 9.68347 4.29761 9.68347H6.59053C6.70935 9.68347 6.8233 9.73067 6.90731 9.81469C6.99133 9.8987 7.03853 10.0127 7.03853 10.1315C7.03853 10.2503 6.99133 10.3642 6.90731 10.4483C6.8233 10.5323 6.70935 10.5795 6.59053 10.5795Z" fill="#331B63"/>
<path d="M11.5107 10.5795H9.21753C9.09871 10.5795 8.98476 10.5323 8.90075 10.4483C8.81673 10.3642 8.76953 10.2503 8.76953 10.1315C8.76953 10.0127 8.81673 9.8987 8.90075 9.81469C8.98476 9.73067 9.09871 9.68347 9.21753 9.68347H11.5107C11.6295 9.68347 11.7435 9.73067 11.8275 9.81469C11.9115 9.8987 11.9587 10.0127 11.9587 10.1315C11.9587 10.2503 11.9115 10.3642 11.8275 10.4483C11.7435 10.5323 11.6295 10.5795 11.5107 10.5795Z" fill="#331B63"/>
<path d="M6.16841 22.2401C6.10417 22.2401 6.04069 22.2263 5.98227 22.1996C5.92385 22.1729 5.87185 22.1339 5.82981 22.0853C5.78777 22.0368 5.75667 21.9797 5.73862 21.9181C5.72056 21.8564 5.71598 21.7916 5.72517 21.728L6.18745 18.564H5.53701C5.46352 18.5639 5.39119 18.5457 5.32639 18.511C5.2616 18.4763 5.20634 18.4262 5.16548 18.3651C5.12461 18.304 5.09941 18.2338 5.09208 18.1607C5.08475 18.0876 5.09552 18.0138 5.12345 17.9458L6.75501 13.9496C6.78865 13.8673 6.84606 13.7968 6.91991 13.7472C6.99376 13.6975 7.08072 13.671 7.16969 13.671H9.75717C9.83126 13.671 9.90419 13.6894 9.96945 13.7244C10.0347 13.7595 10.0902 13.8103 10.1311 13.8721C10.1719 13.9339 10.1968 14.0049 10.2035 14.0786C10.2101 14.1524 10.1984 14.2267 10.1693 14.2949L9.15349 16.6777H10.0596C10.1448 16.6776 10.2282 16.7019 10.3001 16.7476C10.3719 16.7933 10.4293 16.8586 10.4654 16.9357C10.5015 17.0128 10.5149 17.0987 10.504 17.1832C10.4931 17.2676 10.4583 17.3473 10.4037 17.4127L6.51169 22.0789C6.46975 22.1292 6.41727 22.1698 6.35796 22.1976C6.29865 22.2255 6.23394 22.24 6.16841 22.2401ZM6.20397 17.668H6.70433C6.76862 17.668 6.83216 17.6819 6.89063 17.7086C6.94909 17.7354 7.00112 17.7744 7.04317 17.823C7.08522 17.8717 7.1163 17.9288 7.13432 17.9905C7.15233 18.0522 7.15685 18.1171 7.14757 18.1807L6.83957 20.2874L9.10169 17.5745H8.47533C8.4012 17.5745 8.32822 17.5561 8.26294 17.521C8.19766 17.4859 8.14211 17.4351 8.10129 17.3732C8.06047 17.3113 8.03565 17.2403 8.02904 17.1664C8.02244 17.0926 8.03426 17.0182 8.06345 16.9501L9.07929 14.567H7.47069L6.20397 17.668Z" fill="#331B63"/>
<path d="M24.4363 23.6202H15.9613C15.6407 23.6198 15.3333 23.4923 15.1066 23.2656C14.8799 23.0389 14.7523 22.7315 14.752 22.4109V8.28574C14.7522 7.9651 14.8798 7.65767 15.1065 7.43095C15.3332 7.20422 15.6406 7.07671 15.9613 7.07642H24.4386C24.7592 7.07671 25.0666 7.20422 25.2933 7.43095C25.5201 7.65767 25.6476 7.9651 25.6479 8.28574V22.4131C25.6459 22.7334 25.5175 23.04 25.2905 23.2661C25.0636 23.4921 24.7566 23.6194 24.4363 23.6202ZM15.9613 7.97242C15.8782 7.97249 15.7985 8.00552 15.7398 8.06427C15.6811 8.12301 15.648 8.20266 15.648 8.28574V22.4109C15.6475 22.4522 15.6553 22.4931 15.6709 22.5313C15.6865 22.5695 15.7095 22.6043 15.7387 22.6334C15.7679 22.6626 15.8026 22.6857 15.8408 22.7013C15.8791 22.7169 15.92 22.7247 15.9613 22.7242H24.4363C24.5196 22.7241 24.5995 22.691 24.6586 22.6323C24.7177 22.5736 24.7512 22.4939 24.7519 22.4106V8.28574C24.7518 8.20266 24.7188 8.12301 24.66 8.06427C24.6013 8.00552 24.5216 7.97249 24.4386 7.97242H15.9613Z" fill="#331B63"/>
<path d="M23.6914 7.97248H21.8386C21.7198 7.97248 21.6059 7.92528 21.5218 7.84127C21.4378 7.75725 21.3906 7.6433 21.3906 7.52448V6.09368C21.391 5.87634 21.4712 5.6667 21.6161 5.50468C21.7609 5.34266 21.9603 5.23957 22.1763 5.21504C22.5654 5.17262 22.9579 5.17262 23.347 5.21504C23.5636 5.23874 23.7639 5.34147 23.9095 5.50357C24.0551 5.66567 24.1359 5.87577 24.1363 6.09368L24.1385 7.52364C24.1385 7.64246 24.0913 7.75641 24.0073 7.84043C23.9233 7.92444 23.8094 7.97164 23.6905 7.97164L23.6914 7.97248ZM22.2866 7.07648H23.2428L23.2403 6.10404C22.923 6.06988 22.603 6.06988 22.2858 6.10404L22.2866 7.07648Z" fill="#331B63"/>
<path d="M18.7695 7.9725H16.9167C16.7979 7.9725 16.684 7.9253 16.6 7.84128C16.5159 7.75726 16.4688 7.64331 16.4688 7.5245V6.20374C16.4688 6.08492 16.5159 5.97097 16.6 5.88695C16.684 5.80294 16.7979 5.75574 16.9167 5.75574H18.7695C18.8883 5.75574 19.0023 5.80294 19.0863 5.88695C19.1703 5.97097 19.2175 6.08492 19.2175 6.20374V7.5245C19.2175 7.64331 19.1703 7.75726 19.0863 7.84128C19.0023 7.9253 18.8883 7.9725 18.7695 7.9725ZM17.3647 7.0765H18.3215V6.65174H17.3647V7.0765Z" fill="#331B63"/>
<path d="M19.3888 6.65168H16.2976C16.1788 6.65168 16.0648 6.60448 15.9808 6.52046C15.8968 6.43645 15.8496 6.3225 15.8496 6.20368V4.82776C15.8496 4.70894 15.8968 4.59499 15.9808 4.51098C16.0648 4.42696 16.1788 4.37976 16.2976 4.37976H19.3888C19.5076 4.37976 19.6216 4.42696 19.7056 4.51098C19.7896 4.59499 19.8368 4.70894 19.8368 4.82776V6.20368C19.8368 6.3225 19.7896 6.43645 19.7056 6.52046C19.6216 6.60448 19.5076 6.65168 19.3888 6.65168ZM16.7456 5.75568H18.9408V5.27576H16.7456V5.75568Z" fill="#331B63"/>
<path d="M25.1976 13.188H15.2C15.0811 13.188 14.9672 13.1408 14.8832 13.0568C14.7992 12.9728 14.752 12.8588 14.752 12.74C14.752 12.6212 14.7992 12.5072 14.8832 12.4232C14.9672 12.3392 15.0811 12.292 15.2 12.292H25.1976C25.3165 12.292 25.4304 12.3392 25.5144 12.4232C25.5984 12.5072 25.6456 12.6212 25.6456 12.74C25.6456 12.8588 25.5984 12.9728 25.5144 13.0568C25.4304 13.1408 25.3165 13.188 25.1976 13.188Z" fill="#331B63"/>
<path d="M17.8445 11.7262C17.7257 11.7262 17.6117 11.679 17.5277 11.5949C17.4437 11.5109 17.3965 11.397 17.3965 11.2782V8.98523C17.3965 8.86641 17.4437 8.75246 17.5277 8.66845C17.6117 8.58443 17.7257 8.53723 17.8445 8.53723C17.9633 8.53723 18.0773 8.58443 18.1613 8.66845C18.2453 8.75246 18.2925 8.86641 18.2925 8.98523V11.2782C18.2925 11.397 18.2453 11.5109 18.1613 11.5949C18.0773 11.679 17.9633 11.7262 17.8445 11.7262Z" fill="#331B63"/>
<path d="M18.9912 10.5795H16.698C16.5792 10.5795 16.4652 10.5323 16.3812 10.4483C16.2972 10.3642 16.25 10.2503 16.25 10.1315C16.25 10.0127 16.2972 9.8987 16.3812 9.81469C16.4652 9.73067 16.5792 9.68347 16.698 9.68347H18.9912C19.11 9.68347 19.224 9.73067 19.308 9.81469C19.392 9.8987 19.4392 10.0127 19.4392 10.1315C19.4392 10.2503 19.392 10.3642 19.308 10.4483C19.224 10.5323 19.11 10.5795 18.9912 10.5795Z" fill="#331B63"/>
<path d="M23.9111 10.5795H21.6179C21.4991 10.5795 21.3852 10.5323 21.3011 10.4483C21.2171 10.3642 21.1699 10.2503 21.1699 10.1315C21.1699 10.0127 21.2171 9.8987 21.3011 9.81469C21.3852 9.73067 21.4991 9.68347 21.6179 9.68347H23.9111C24.0299 9.68347 24.1439 9.73067 24.2279 9.81469C24.3119 9.8987 24.3591 10.0127 24.3591 10.1315C24.3591 10.2503 24.3119 10.3642 24.2279 10.4483C24.1439 10.5323 24.0299 10.5795 23.9111 10.5795Z" fill="#331B63"/>
<path d="M18.5699 22.2401C18.5056 22.2401 18.4421 22.2263 18.3837 22.1996C18.3253 22.1729 18.2733 22.1339 18.2313 22.0853C18.1892 22.0368 18.1581 21.9797 18.1401 21.9181C18.122 21.8564 18.1174 21.7916 18.1266 21.728L18.5875 18.564H17.9385C17.865 18.5641 17.7926 18.546 17.7277 18.5115C17.6628 18.4769 17.6074 18.4269 17.5664 18.3659C17.5254 18.3049 17.5 18.2348 17.4926 18.1616C17.4851 18.0885 17.4957 18.0147 17.5235 17.9466L19.1565 13.9496C19.1901 13.8673 19.2475 13.7968 19.3214 13.7472C19.3952 13.6975 19.4822 13.671 19.5711 13.671H22.1586C22.2327 13.671 22.3056 13.6894 22.3708 13.7245C22.436 13.7596 22.4915 13.8104 22.5323 13.8722C22.5731 13.934 22.598 14.005 22.6046 14.0787C22.6113 14.1525 22.5996 14.2267 22.5705 14.2949L21.5547 16.6777H22.461C22.5462 16.6776 22.6296 16.7019 22.7015 16.7476C22.7734 16.7933 22.8308 16.8586 22.8669 16.9357C22.903 17.0128 22.9164 17.0987 22.9054 17.1832C22.8945 17.2676 22.8597 17.3473 22.8051 17.4127L18.9131 22.0789C18.8712 22.1292 18.8187 22.1698 18.7594 22.1976C18.7001 22.2255 18.6354 22.24 18.5699 22.2401ZM18.6054 17.668H19.1055C19.1698 17.668 19.2334 17.6818 19.2919 17.7085C19.3504 17.7353 19.4024 17.7743 19.4445 17.8229C19.4866 17.8716 19.5177 17.9287 19.5357 17.9904C19.5538 18.0522 19.5583 18.1171 19.549 18.1807L19.241 20.2874L21.5048 17.5737H20.8776C20.8036 17.5737 20.7307 17.5553 20.6654 17.5202C20.6002 17.4852 20.5447 17.4345 20.5039 17.3727C20.4631 17.3109 20.4382 17.24 20.4315 17.1662C20.4248 17.0925 20.4364 17.0182 20.4655 16.9501L21.4813 14.567H19.8721L18.6054 17.668Z" fill="#331B63"/>
<path d="M21.3682 18.6278C21.3793 18.6278 21.39 18.6234 21.3979 18.6155C21.4057 18.6076 21.4102 18.597 21.4102 18.5858C21.4102 18.5747 21.4057 18.564 21.3979 18.5561C21.39 18.5482 21.3793 18.5438 21.3682 18.5438C21.357 18.5438 21.3463 18.5482 21.3385 18.5561C21.3306 18.564 21.3262 18.5747 21.3262 18.5858C21.3262 18.597 21.3306 18.6076 21.3385 18.6155C21.3463 18.6234 21.357 18.6278 21.3682 18.6278Z" fill="#331B63"/>
</svg>
