<svg width="22" height="22" viewBox="0 0 22 22" fill="none" xmlns="http://www.w3.org/2000/svg">
<path d="M15.125 21.8281H6.875C5.83234 21.8281 4.98438 20.9802 4.98438 19.9375V4.8125C4.98438 3.76984 5.83234 2.92188 6.875 2.92188H15.125C16.1677 2.92188 17.0156 3.76984 17.0156 4.8125V19.9375C17.0156 20.9802 16.1677 21.8281 15.125 21.8281ZM6.875 3.95312C6.40097 3.95312 6.01562 4.33847 6.01562 4.8125V19.9375C6.01562 20.4115 6.40097 20.7969 6.875 20.7969H15.125C15.599 20.7969 15.9844 20.4115 15.9844 19.9375V4.8125C15.9844 4.33847 15.599 3.95312 15.125 3.95312H6.875Z" fill="#331B63"/>
<path d="M9.10942 17.0156C9.03084 17.0156 8.95233 16.9978 8.87911 16.9612C8.66289 16.8532 8.55083 16.6095 8.6092 16.3748L9.47999 12.8906H8.42186C8.24929 12.8906 8.08814 12.8043 7.99286 12.661C7.89757 12.5177 7.87942 12.3357 7.94583 12.1766L9.66458 8.05159C9.74447 7.85957 9.93243 7.73438 10.1406 7.73438H12.8906C13.0692 7.73438 13.235 7.82705 13.329 7.97878C13.423 8.13086 13.4317 8.32088 13.3518 8.48066L12.3502 10.4844H13.5781C13.7769 10.4844 13.9581 10.5989 14.0434 10.7785C14.1293 10.9581 14.1038 11.1709 13.9783 11.3253L9.50955 16.8253C9.40883 16.9489 9.26047 17.0156 9.10942 17.0156ZM9.19536 11.8594H10.1407C10.2991 11.8594 10.4495 11.9325 10.5468 12.0578C10.6449 12.183 10.6791 12.3461 10.6408 12.5003L10.1722 14.3741L12.4945 11.5157H11.5157C11.3371 11.5157 11.1712 11.423 11.0773 11.2713C10.9833 11.1192 10.9745 10.9292 11.0544 10.7694L12.0561 8.76563H10.4844L9.19536 11.8594Z" fill="#331B63"/>
<path d="M13.75 3.95312H8.25C7.96531 3.95312 7.73438 3.72219 7.73438 3.4375V1.375C7.73438 0.7117 8.2742 0.171875 8.9375 0.171875H13.0625C13.7258 0.171875 14.2656 0.7117 14.2656 1.375V3.4375C14.2656 3.72219 14.0347 3.95312 13.75 3.95312ZM8.76562 2.92188H13.2344V1.375C13.2344 1.28033 13.1572 1.20312 13.0625 1.20312H8.9375C8.84283 1.20312 8.76562 1.28033 8.76562 1.375V2.92188Z" fill="#331B63"/>
</svg>
