<svg width="24" height="22" viewBox="0 0 24 22" fill="none" xmlns="http://www.w3.org/2000/svg">
<path d="M5.92627 17.9695C5.88781 18.0991 5.86719 18.2361 5.86719 18.3777C5.86719 19.1706 6.51382 19.8172 7.30664 19.8172C8.09946 19.8172 8.74609 19.1706 8.74609 18.3777C8.74609 18.2203 8.72057 18.0686 8.67348 17.9266" stroke="#331B63" stroke-miterlimit="22.9256" stroke-linecap="round" stroke-linejoin="round"/>
<path d="M18.6306 17.8836C18.5739 18.0378 18.543 18.2043 18.543 18.3777C18.543 19.1706 19.1896 19.8172 19.9824 19.8172C20.7752 19.8172 21.4219 19.1706 21.4219 18.3777C21.4219 18.1548 21.3707 17.9434 21.2796 17.7547" stroke="#331B63" stroke-miterlimit="22.9256" stroke-linecap="round" stroke-linejoin="round"/>
<path fill-rule="evenodd" clip-rule="evenodd" d="M4.01953 7.29181H4.57812V15.1551H2.85938C2.38603 15.1551 2 14.7691 2 14.2957V9.31134C2 8.19901 2.9072 7.29181 4.01953 7.29181Z" stroke="#331B63" stroke-miterlimit="22.9256" stroke-linecap="round" stroke-linejoin="round"/>
<path d="M22.7109 4.77814H4.57812V17.6688H22.7109V4.77814Z" stroke="#331B63" stroke-miterlimit="22.9256" stroke-linecap="round" stroke-linejoin="round"/>
<path d="M9.22828 7.57111L8.24219 9.79495H10.0557L9.19274 12.2214" stroke="#331B63" stroke-miterlimit="22.9256" stroke-linecap="round" stroke-linejoin="round"/>
<path d="M8.57422 2.20001H5.99609V4.77814H8.57422V2.20001Z" stroke="#331B63" stroke-miterlimit="22.9256" stroke-linecap="round" stroke-linejoin="round"/>
<path d="M5.52344 2.20007H9.04688" stroke="#331B63" stroke-miterlimit="22.9256" stroke-linecap="round" stroke-linejoin="round"/>
<path d="M14.2891 7.35626H20.1328" stroke="#331B63" stroke-miterlimit="22.9256" stroke-linecap="round" stroke-linejoin="round"/>
<path d="M14.2891 9.93433H20.1328" stroke="#331B63" stroke-miterlimit="22.9256" stroke-linecap="round" stroke-linejoin="round"/>
<path d="M14.2891 12.5125H20.1328" stroke="#331B63" stroke-miterlimit="22.9256" stroke-linecap="round" stroke-linejoin="round"/>
<path d="M4.70703 15.0906H22.582" stroke="#331B63" stroke-miterlimit="22.9256" stroke-linecap="round" stroke-linejoin="round"/>
</svg>
