<svg width="20" height="20" viewBox="0 0 20 20" fill="none" xmlns="http://www.w3.org/2000/svg">
<g clip-path="url(#clip0_473_4923)">
<path d="M19.1057 10.1223C19.0582 9.89825 18.9349 9.69741 18.7565 9.55367C18.5782 9.40994 18.3557 9.33212 18.1267 9.33333H18V4.83333C18 3.63986 17.5259 2.49527 16.682 1.65135C15.8381 0.807439 14.6935 0.333333 13.5 0.333333C12.3065 0.333333 11.1619 0.807439 10.318 1.65135C9.47411 2.49527 9 3.63986 9 4.83333V15.1667C9 15.8297 8.73661 16.4656 8.26777 16.9344C7.79893 17.4033 7.16304 17.6667 6.5 17.6667C5.83696 17.6667 5.20107 17.4033 4.73223 16.9344C4.26339 16.4656 4 15.8297 4 15.1667V10.6667H4.12667C4.3559 10.6678 4.57851 10.5898 4.75689 10.4458C4.93526 10.3018 5.05845 10.1007 5.10567 9.87633L5.926 6.045C5.97464 5.81652 5.99944 5.5836 6 5.35V5C5.99915 4.79391 5.93464 4.59312 5.8153 4.4251C5.69597 4.25708 5.52764 4.13003 5.33333 4.06133V0.666667C5.33333 0.489856 5.2631 0.320286 5.13807 0.195262C5.01305 0.0702379 4.84348 0 4.66667 0L1.33333 0C1.15652 0 0.986953 0.0702379 0.861929 0.195262C0.736905 0.320286 0.666667 0.489856 0.666667 0.666667V4.06133C0.472364 4.13003 0.304031 4.25708 0.184696 4.4251C0.0653613 4.59312 0.000854322 4.79391 0 5L0 5.35C0.000574494 5.58406 0.0254862 5.81743 0.0743333 6.04633L0.894333 9.87767C0.941814 10.1017 1.06513 10.3026 1.24347 10.4463C1.42182 10.5901 1.64428 10.6679 1.87333 10.6667H2V15.1667C2 16.3601 2.47411 17.5047 3.31802 18.3486C4.16193 19.1926 5.30653 19.6667 6.5 19.6667C7.69347 19.6667 8.83807 19.1926 9.68198 18.3486C10.5259 17.5047 11 16.3601 11 15.1667V4.83333C11 4.17029 11.2634 3.53441 11.7322 3.06557C12.2011 2.59673 12.837 2.33333 13.5 2.33333C14.163 2.33333 14.7989 2.59673 15.2678 3.06557C15.7366 3.53441 16 4.17029 16 4.83333V9.33333H15.8733C15.6441 9.33218 15.4215 9.41019 15.2431 9.55419C15.0647 9.69819 14.9415 9.89934 14.8943 10.1237L14.074 13.955C14.0254 14.1835 14.0006 14.4164 14 14.65V15C14.0009 15.2061 14.0654 15.4069 14.1847 15.5749C14.304 15.7429 14.4724 15.87 14.6667 15.9387V19.3333C14.6667 19.5101 14.7369 19.6797 14.8619 19.8047C14.987 19.9298 15.1565 20 15.3333 20H18.6667C18.8435 20 19.013 19.9298 19.1381 19.8047C19.2631 19.6797 19.3333 19.5101 19.3333 19.3333V15.9387C19.5276 15.87 19.696 15.7429 19.8153 15.5749C19.9346 15.4069 19.9991 15.2061 20 15V14.65C19.9994 14.4159 19.9745 14.1826 19.9257 13.9537L19.1057 10.1223ZM2 4H1.33333V2.33333H2V4ZM2.66667 1.66667V0.666667H3.33333V1.66667H2.66667ZM2.66667 2.33333H3.33333V5.66667H2.66667V2.33333ZM4 2.33333H4.66667V4H4V2.33333ZM4.66667 1.66667H4V0.666667H4.66667V1.66667ZM2 0.666667V1.66667H1.33333V0.666667H2ZM1.546 9.737L1.45933 9.33333H2.33333C2.42174 9.33333 2.50652 9.29821 2.56904 9.2357C2.63155 9.17319 2.66667 9.08841 2.66667 9C2.66667 8.91159 2.63155 8.82681 2.56904 8.7643C2.50652 8.70179 2.42174 8.66667 2.33333 8.66667H1.31667L1.174 8H2.33333C2.42174 8 2.50652 7.96488 2.56904 7.90237C2.63155 7.83986 2.66667 7.75507 2.66667 7.66667C2.66667 7.57826 2.63155 7.49348 2.56904 7.43096C2.50652 7.36845 2.42174 7.33333 2.33333 7.33333H1.03133L0.726333 5.90833C0.687453 5.72474 0.66746 5.53766 0.666667 5.35V5C0.666667 4.91159 0.701786 4.82681 0.764298 4.7643C0.82681 4.70179 0.911595 4.66667 1 4.66667H2V5.66667C2 5.84348 2.07024 6.01305 2.19526 6.13807C2.32029 6.2631 2.48986 6.33333 2.66667 6.33333H3.33333C3.51014 6.33333 3.67971 6.2631 3.80474 6.13807C3.92976 6.01305 4 5.84348 4 5.66667V4.66667H5C5.08841 4.66667 5.17319 4.70179 5.2357 4.7643C5.29821 4.82681 5.33333 4.91159 5.33333 5V5.35C5.33256 5.5372 5.31268 5.72384 5.274 5.907L4.96867 7.33333H3.66667C3.57826 7.33333 3.49348 7.36845 3.43096 7.43096C3.36845 7.49348 3.33333 7.57826 3.33333 7.66667C3.33333 7.75507 3.36845 7.83986 3.43096 7.90237C3.49348 7.96488 3.57826 8 3.66667 8H4.82567L4.683 8.66667H3.66667C3.57826 8.66667 3.49348 8.70179 3.43096 8.7643C3.36845 8.82681 3.33333 8.91159 3.33333 9C3.33333 9.08841 3.36845 9.17319 3.43096 9.2357C3.49348 9.29821 3.57826 9.33333 3.66667 9.33333H4.54033L4.454 9.73567C4.43814 9.81064 4.39693 9.87786 4.33731 9.926C4.27769 9.97415 4.2033 10.0003 4.12667 10H1.87333C1.79689 10.0003 1.72264 9.9744 1.66305 9.92652C1.60345 9.87864 1.56213 9.81173 1.546 9.737ZM13.5 1.66667C12.6604 1.66764 11.8556 2.00158 11.2619 2.59523C10.6682 3.18889 10.3343 3.99378 10.3333 4.83333V15.1667C10.3333 16.1833 9.92947 17.1584 9.21058 17.8772C8.49169 18.5961 7.51666 19 6.5 19C5.48334 19 4.50831 18.5961 3.78942 17.8772C3.07053 17.1584 2.66667 16.1833 2.66667 15.1667V10.6667H3.33333V15.1667C3.33333 16.0065 3.66696 16.812 4.26083 17.4058C4.85469 17.9997 5.66015 18.3333 6.5 18.3333C7.33985 18.3333 8.14531 17.9997 8.73917 17.4058C9.33304 16.812 9.66667 16.0065 9.66667 15.1667V4.83333C9.66667 3.81667 10.0705 2.84165 10.7894 2.12276C11.5083 1.40387 12.4833 1 13.5 1C14.5167 1 15.4917 1.40387 16.2106 2.12276C16.9295 2.84165 17.3333 3.81667 17.3333 4.83333V9.33333H16.6667V4.83333C16.6657 3.99378 16.3318 3.18889 15.7381 2.59523C15.1444 2.00158 14.3396 1.66764 13.5 1.66667ZM18 16H18.6667V17.6667H18V16ZM17.3333 18.3333V19.3333H16.6667V18.3333H17.3333ZM17.3333 17.6667H16.6667V14.3333H17.3333V17.6667ZM16 17.6667H15.3333V16H16V17.6667ZM15.3333 18.3333H16V19.3333H15.3333V18.3333ZM18 19.3333V18.3333H18.6667V19.3333H18ZM19.3333 15C19.3333 15.0884 19.2982 15.1732 19.2357 15.2357C19.1732 15.2982 19.0884 15.3333 19 15.3333H18V14.3333C18 14.1565 17.9298 13.987 17.8047 13.8619C17.6797 13.7369 17.5101 13.6667 17.3333 13.6667H16.6667C16.4899 13.6667 16.3203 13.7369 16.1953 13.8619C16.0702 13.987 16 14.1565 16 14.3333V15.3333H15C14.9116 15.3333 14.8268 15.2982 14.7643 15.2357C14.7018 15.1732 14.6667 15.0884 14.6667 15V14.65C14.6674 14.4628 14.6873 14.2762 14.726 14.093L15.0313 12.6667H16.3333C16.4217 12.6667 16.5065 12.6315 16.569 12.569C16.6315 12.5065 16.6667 12.4217 16.6667 12.3333C16.6667 12.2449 16.6315 12.1601 16.569 12.0976C16.5065 12.0351 16.4217 12 16.3333 12H15.1743L15.317 11.3333H16.3333C16.4217 11.3333 16.5065 11.2982 16.569 11.2357C16.6315 11.1732 16.6667 11.0884 16.6667 11C16.6667 10.9116 16.6315 10.8268 16.569 10.7643C16.5065 10.7018 16.4217 10.6667 16.3333 10.6667H15.4597L15.546 10.2643C15.5619 10.1894 15.6031 10.1221 15.6627 10.074C15.7223 10.0259 15.7967 9.99972 15.8733 10H18.1267C18.2031 9.99966 18.2774 10.0256 18.337 10.0735C18.3965 10.1214 18.4379 10.1883 18.454 10.263L18.5407 10.6667H17.6667C17.5783 10.6667 17.4935 10.7018 17.431 10.7643C17.3685 10.8268 17.3333 10.9116 17.3333 11C17.3333 11.0884 17.3685 11.1732 17.431 11.2357C17.4935 11.2982 17.5783 11.3333 17.6667 11.3333H18.6833L18.826 12H17.6667C17.5783 12 17.4935 12.0351 17.431 12.0976C17.3685 12.1601 17.3333 12.2449 17.3333 12.3333C17.3333 12.4217 17.3685 12.5065 17.431 12.569C17.4935 12.6315 17.5783 12.6667 17.6667 12.6667H18.9687L19.2737 14.0917C19.3125 14.2753 19.3325 14.4623 19.3333 14.65V15Z" fill="#331B63"/>
</g>
<defs>
<clipPath id="clip0_473_4923">
<rect width="20" height="20" fill="white"/>
</clipPath>
</defs>
</svg>
