<svg width="26" height="26" viewBox="0 0 26 26" fill="none" xmlns="http://www.w3.org/2000/svg">
<path d="M13.0006 2.04749C11.9427 2.04749 11.082 2.90813 11.082 3.96606C11.082 5.02399 11.9427 5.88458 13.0006 5.88458C14.0585 5.88458 14.9192 5.02389 14.9192 3.96606C14.9192 2.90813 14.0585 2.04749 13.0006 2.04749ZM13.0006 5.11885C12.3649 5.11885 11.8477 4.60169 11.8477 3.96601C11.8477 3.33033 12.3649 2.81312 13.0006 2.81312C13.6363 2.81312 14.1535 3.33028 14.1535 3.96601C14.1535 4.60174 13.6363 5.11885 13.0006 5.11885Z" fill="#331B63"/>
<path d="M13 0C12.7885 0 12.6172 0.171438 12.6172 0.382841V0.894718C12.6172 1.10617 12.7886 1.27756 13 1.27756C13.2115 1.27756 13.3829 1.10612 13.3829 0.894718V0.382841C13.3829 0.171438 13.2115 0 13 0Z" fill="#331B63"/>
<path d="M11.0995 1.52359L10.7375 1.16167C10.5881 1.01217 10.3457 1.01222 10.1961 1.16167C10.0466 1.31117 10.0466 1.5536 10.1962 1.70315L10.5581 2.06512C10.6328 2.13987 10.7308 2.17725 10.8288 2.17725C10.9267 2.17725 11.0248 2.13987 11.0996 2.06507C11.2491 1.91552 11.2491 1.67309 11.0995 1.52359Z" fill="#331B63"/>
<path d="M9.92792 3.58313H9.41604C9.20454 3.58313 9.0332 3.75457 9.0332 3.96597C9.0332 4.17743 9.20459 4.34881 9.41604 4.34881H9.92792C10.1394 4.34881 10.3108 4.17737 10.3108 3.96597C10.3108 3.75457 10.1394 3.58313 9.92792 3.58313Z" fill="#331B63"/>
<path d="M11.0996 5.86713C10.95 5.71763 10.7076 5.71763 10.558 5.86713L10.1961 6.22905C10.0466 6.37855 10.0466 6.62098 10.1961 6.77048C10.2709 6.84523 10.3689 6.88266 10.4669 6.88266C10.5648 6.88266 10.6628 6.84528 10.7376 6.77048L11.0996 6.40856C11.2491 6.25906 11.2491 6.01663 11.0996 5.86713Z" fill="#331B63"/>
<path d="M13 6.65454C12.7885 6.65454 12.6172 6.82598 12.6172 7.03738V7.54926C12.6172 7.76071 12.7886 7.9321 13 7.9321C13.2115 7.9321 13.3829 7.76066 13.3829 7.54926V7.03738C13.3829 6.82598 13.2115 6.65454 13 6.65454Z" fill="#331B63"/>
<path d="M15.8046 6.22908L15.4427 5.86716C15.2932 5.71766 15.0508 5.7176 14.9012 5.8671C14.7517 6.01661 14.7517 6.25904 14.9012 6.40859L15.2631 6.77051C15.3379 6.84526 15.4359 6.88263 15.5339 6.88263C15.6318 6.88263 15.7298 6.84526 15.8046 6.77051C15.9541 6.62101 15.9541 6.37858 15.8046 6.22908Z" fill="#331B63"/>
<path d="M16.5822 3.58325H16.0703C15.8588 3.58325 15.6875 3.75469 15.6875 3.96609C15.6875 4.1775 15.8589 4.34893 16.0703 4.34893H16.5822C16.7937 4.34893 16.9651 4.1775 16.9651 3.96609C16.9651 3.75469 16.7937 3.58325 16.5822 3.58325Z" fill="#331B63"/>
<path d="M15.8045 1.16154C15.6551 1.01204 15.4127 1.0121 15.2631 1.16154L14.9012 1.52346C14.7517 1.67296 14.7517 1.9154 14.9012 2.06495C14.9759 2.13975 15.0739 2.17712 15.1719 2.17712C15.2699 2.17712 15.3679 2.13975 15.4427 2.06495L15.8046 1.70303C15.9541 1.55353 15.9541 1.3111 15.8045 1.16154Z" fill="#331B63"/>
<path d="M23.6191 19.6108C23.6188 19.6041 23.6187 19.5974 23.618 19.5907C23.6167 19.5773 23.6147 19.564 23.612 19.551C23.6119 19.5507 23.6119 19.5505 23.6118 19.5502L22.93 16.3114C22.9297 16.3103 22.9294 16.3091 22.9292 16.308L22.2475 13.0694C22.2472 13.0683 22.2469 13.0671 22.2467 13.066L21.5643 9.82424C21.527 9.64707 21.3707 9.52026 21.1896 9.52026H4.8091C4.62802 9.52026 4.47176 9.64707 4.43444 9.82424L3.75214 13.0656C3.75183 13.067 3.75153 13.0683 3.75128 13.0697L3.06953 16.3083C3.06933 16.3092 3.06913 16.3101 3.06898 16.3111L2.38718 19.5499C2.38434 19.5635 2.38216 19.5775 2.38079 19.5916C2.38048 19.5948 2.38053 19.5982 2.38028 19.6014C2.37962 19.6105 2.37891 19.6196 2.37891 19.6289V21.1647C2.37891 21.3762 2.55029 21.5475 2.76175 21.5475H11.8486V23.6984H8.90417C8.69267 23.6984 8.52133 23.8699 8.52133 24.0813V25.2342H4.80915C4.59765 25.2342 4.42631 25.4057 4.42631 25.6171C4.42631 25.8285 4.5977 25.9999 4.80915 25.9999H8.90422H17.0945H21.189C21.4005 25.9999 21.5719 25.8285 21.5719 25.6171C21.5719 25.4057 21.4005 25.2342 21.189 25.2342H17.4774V24.0813C17.4774 23.8698 17.306 23.6984 17.0946 23.6984H14.1501V21.5475H23.237C23.4485 21.5475 23.6199 21.3761 23.6199 21.1647V19.6358C23.6199 19.6353 23.6199 19.6347 23.6199 19.6341V19.6291C23.62 19.6228 23.6194 19.6169 23.6191 19.6108ZM22.7653 19.2461H16.769L16.5952 16.7699H22.244L22.7653 19.2461ZM21.5615 13.5279L22.0829 16.0042H16.5414L16.3676 13.5279H21.5615ZM20.879 10.286L21.4004 12.7623H16.3139L16.1401 10.286H20.879ZM10.6262 10.286H15.3725L15.5463 12.7623H10.4524L10.6262 10.286ZM10.3988 13.5279H15.6001L15.7739 16.0042H10.225L10.3988 13.5279ZM10.1713 16.7699H15.8276L16.0014 19.2461H9.99755L10.1713 16.7699ZM5.11978 10.286H9.85866L9.68488 12.7623H4.59846L5.11978 10.286ZM4.43733 13.5279H9.63116L9.45738 16.0042H3.91601L4.43733 13.5279ZM16.7117 24.4643V25.2343H9.28711V24.4643H12.2315H13.7674H16.7117ZM12.6144 23.6985V21.5476H13.3845V23.6985H12.6144ZM13.7718 20.7819C13.7703 20.7819 13.7688 20.7817 13.7674 20.7817H12.2315C12.2301 20.7817 12.2286 20.7819 12.2271 20.7819H3.14459V20.0119H4.9684C5.17991 20.0119 5.35125 19.8404 5.35125 19.629C5.35125 19.4176 5.17986 19.2462 4.9684 19.2462H3.23356L3.75483 16.7699H9.40366L9.22988 19.2461H6.62408C6.41258 19.2461 6.24119 19.4176 6.24119 19.629C6.24119 19.8404 6.41258 20.0118 6.62403 20.0118H9.58652C9.58677 20.0118 9.58698 20.0118 9.58723 20.0118C9.58738 20.0118 9.58759 20.0118 9.58774 20.0118H16.4111C16.4112 20.0118 16.4114 20.0118 16.4116 20.0118C16.4119 20.0118 16.4121 20.0118 16.4123 20.0118H22.8541V20.7819H13.7718V20.7819Z" fill="#331B63"/>
</svg>
