<svg width="26" height="27" viewBox="0 0 26 27" fill="none" xmlns="http://www.w3.org/2000/svg">
<path d="M11.5554 10.6376C10.0164 10.8793 7.32363 12.1105 5.85112 13.5834L3.55664 15.8762L6.79074 15.5737C8.86695 15.3801 11.537 14.0923 12.7006 13.0647" stroke="#331B63" stroke-miterlimit="10" stroke-linecap="round" stroke-linejoin="round"/>
<path d="M13.3379 13.0647C14.5029 14.0923 17.1729 15.3801 19.2491 15.5737L22.4832 15.8762L20.1887 13.5834C18.7148 12.1105 16.0235 10.8793 14.4844 10.6376" stroke="#331B63" stroke-miterlimit="10" stroke-linecap="round" stroke-linejoin="round"/>
<path d="M14.3646 10.4496C14.8011 8.95831 14.8322 6.00397 14.1236 4.0462L13.0196 1L11.917 4.0462C11.2084 6.00397 11.2396 8.96255 11.6747 10.4496" stroke="#331B63" stroke-miterlimit="10" stroke-linecap="round" stroke-linejoin="round"/>
<path d="M13.0104 15.6897C12.1728 15.6897 11.4883 16.3724 11.4883 17.2078V18.2878H14.531V17.2078C14.531 16.3724 13.8465 15.6897 13.0104 15.6897Z" stroke="#331B63" stroke-miterlimit="10" stroke-linecap="round" stroke-linejoin="round"/>
<path d="M13.0202 13.0959C13.9385 13.0959 14.6882 12.3481 14.6882 11.4321C14.6882 10.5162 13.9385 9.76978 13.0202 9.76978C12.1018 9.76978 11.3535 10.5162 11.3535 11.4321C11.3535 12.3481 12.1018 13.0959 13.0202 13.0959Z" stroke="#331B63" stroke-miterlimit="10" stroke-linecap="round" stroke-linejoin="round"/>
<path d="M13.0098 13.0958V15.6798" stroke="#331B63" stroke-miterlimit="10" stroke-linecap="round" stroke-linejoin="round"/>
<path d="M18.4866 22.9922H7.55273V25.5352H18.4866V22.9922Z" stroke="#331B63" stroke-miterlimit="10" stroke-linecap="round" stroke-linejoin="round"/>
<path d="M25.0403 25.5352H1" stroke="#331B63" stroke-miterlimit="10" stroke-linecap="round" stroke-linejoin="round"/>
<path d="M13.0104 15.6897C13.8465 15.6897 14.531 16.3724 14.531 17.2078V22.9921H11.4883V17.2078C11.4883 16.3724 12.1728 15.6897 13.0104 15.6897Z" stroke="#331B63" stroke-miterlimit="10" stroke-linecap="round" stroke-linejoin="round"/>
</svg>
