<svg width="21" height="21" viewBox="0 0 21 21" fill="none" xmlns="http://www.w3.org/2000/svg">
<g clip-path="url(#clip0_477_5307)">
<path d="M20.3815 20.8204H0.616834C0.389402 20.8204 0.205078 20.6361 0.205078 20.4087V17.4736C0.205078 17.2463 0.389443 17.0619 0.616834 17.0619H20.3815C20.6089 17.0619 20.7933 17.2463 20.7933 17.4736V20.4087C20.7933 20.6361 20.6089 20.8204 20.3815 20.8204ZM1.02859 19.9969H19.9698V17.8854H1.02859V19.9969Z" fill="#331B63"/>
<path d="M20.3815 6.35599H0.616834C0.389402 6.35599 0.205078 6.17162 0.205078 5.94423V3.0619C0.205078 2.83447 0.389443 2.65015 0.616834 2.65015H20.3815C20.6089 2.65015 20.7933 2.83451 20.7933 3.0619V5.94428C20.7933 6.17167 20.6089 6.35599 20.3815 6.35599ZM1.02859 5.53248H19.9698V3.47366H1.02859V5.53248Z" fill="#331B63"/>
<path d="M17.9111 17.8854H3.08754C2.86011 17.8854 2.67578 17.7011 2.67578 17.4737V5.94423C2.67578 5.71679 2.86015 5.53247 3.08754 5.53247H17.9111C18.1385 5.53247 18.3228 5.71684 18.3228 5.94423V17.4737C18.3228 17.7011 18.1385 17.8854 17.9111 17.8854ZM3.49929 17.0619H17.4993V6.35602H3.49929V17.0619Z" fill="#331B63"/>
<path d="M17.9119 3.47363H13.3825C13.1551 3.47363 12.9707 3.28927 12.9707 3.06188V0.59126C12.9707 0.363829 13.1551 0.179504 13.3825 0.179504H17.9119C18.1392 0.179504 18.3236 0.36387 18.3236 0.59126V3.06184C18.3236 3.28927 18.1392 3.47363 17.9119 3.47363ZM13.7942 2.65012H17.5001V1.00306H13.7942V2.65012Z" fill="#331B63"/>
<path d="M7.61693 3.47363H3.08754C2.86011 3.47363 2.67578 3.28927 2.67578 3.06188V0.59126C2.67578 0.363829 2.86015 0.179504 3.08754 0.179504H7.61693C7.84437 0.179504 8.02869 0.36387 8.02869 0.59126V3.06184C8.02873 3.28927 7.84437 3.47363 7.61693 3.47363ZM3.49929 2.65012H7.20518V1.00306H3.49929V2.65012Z" fill="#331B63"/>
<path d="M10.5001 16.2384C10.4797 16.2384 10.4591 16.2369 10.4385 16.2338C10.2551 16.2061 10.1129 16.0593 10.091 15.8752L9.79395 13.3739H8.11879C7.97946 13.3739 7.8496 13.3035 7.77364 13.1867C7.69768 13.0699 7.68591 12.9226 7.74234 12.7953L10.1234 7.4244C10.199 7.25398 10.3798 7.15563 10.5639 7.1845C10.7481 7.21346 10.8898 7.36263 10.9094 7.54802L11.2032 10.332L12.8099 10.0501C12.9597 10.0239 13.1117 10.0823 13.2054 10.2021C13.299 10.3219 13.3191 10.4836 13.2574 10.6226L10.8763 15.9934C10.8096 16.144 10.6609 16.2384 10.5001 16.2384ZM8.75178 12.5504H10.1597C10.3684 12.5504 10.544 12.7064 10.5686 12.9136L10.7318 14.2875L12.1916 10.9948L10.9111 11.2194C10.7988 11.2391 10.6832 11.2113 10.5922 11.1426C10.501 11.0739 10.4425 10.9705 10.4305 10.857L10.252 9.16617L8.75178 12.5504Z" fill="#331B63"/>
<path d="M6.38109 12.1207H4.73402C4.50659 12.1207 4.32227 11.9363 4.32227 11.7089C4.32227 11.4815 4.50663 11.2972 4.73402 11.2972H6.38109C6.60852 11.2972 6.79284 11.4815 6.79284 11.7089C6.79284 11.9363 6.60848 12.1207 6.38109 12.1207Z" fill="#331B63"/>
<path d="M16.2639 12.1207H14.6168C14.3894 12.1207 14.2051 11.9363 14.2051 11.7089C14.2051 11.4815 14.3894 11.2972 14.6168 11.2972H16.2639C16.4913 11.2972 16.6757 11.4815 16.6757 11.7089C16.6757 11.9363 16.4913 12.1207 16.2639 12.1207Z" fill="#331B63"/>
<path d="M15.4411 12.9442C15.2137 12.9442 15.0293 12.7598 15.0293 12.5325V10.8854C15.0293 10.658 15.2137 10.4736 15.4411 10.4736C15.6684 10.4736 15.8528 10.658 15.8528 10.8854V12.5325C15.8528 12.7598 15.6684 12.9442 15.4411 12.9442Z" fill="#331B63"/>
</g>
<defs>
<clipPath id="clip0_477_5307">
<rect width="21" height="21" fill="white"/>
</clipPath>
</defs>
</svg>
