<svg width="22" height="22" viewBox="0 0 22 22" fill="none" xmlns="http://www.w3.org/2000/svg">
<g clip-path="url(#clip0_473_4863)">
<path d="M11.8903 5.89357C11.8903 6.17832 11.6594 6.40919 11.3746 6.40919H10.6254C10.3406 6.40919 10.1097 6.17832 10.1097 5.89357C10.1097 5.60881 10.3406 5.37794 10.6254 5.37794H11.3746C11.6594 5.37794 11.8903 5.60881 11.8903 5.89357ZM22 15.6455V16.3134C22 17.4413 21.0824 18.3589 19.9545 18.3589H2.04548C0.917555 18.3589 0 17.4413 0 16.3134V15.6455C0 15.3608 0.230871 15.1299 0.515625 15.1299H1.27742C1.14546 14.8722 1.07048 14.5807 1.07048 14.2719V5.53044C1.07048 4.4887 1.91804 3.64114 2.95977 3.64114H19.0403C20.082 3.64114 20.9296 4.4887 20.9296 5.53044V14.2719C20.9296 14.5808 20.8546 14.8723 20.7227 15.13H21.4844C21.7691 15.1299 22 15.3608 22 15.6455ZM2.95973 15.1299H19.0403C19.5134 15.1299 19.8983 14.745 19.8983 14.2719V5.53044C19.8983 5.05731 19.5134 4.67239 19.0403 4.67239H2.95973C2.4866 4.67239 2.10169 5.05731 2.10169 5.53044V14.2719C2.10169 14.745 2.4866 15.1299 2.95973 15.1299ZM20.9688 16.1612H1.03125V16.3134C1.03125 16.8726 1.48625 17.3276 2.04548 17.3276H19.9546C20.5138 17.3276 20.9688 16.8726 20.9688 16.3134V16.1612H20.9688Z" fill="#331B63"/>
</g>
<defs>
<clipPath id="clip0_473_4863">
<rect width="22" height="22" fill="white"/>
</clipPath>
</defs>
</svg>
