<svg width="20" height="20" viewBox="0 0 20 20" fill="none" xmlns="http://www.w3.org/2000/svg">
<path d="M11.834 1.66669H9.83398C9.55766 1.66669 9.33398 1.89036 9.33398 2.16669C9.33398 2.44302 9.55766 2.66669 9.83398 2.66669H11.834C12.1103 2.66669 12.334 2.44302 12.334 2.16669C12.334 1.89036 12.1103 1.66669 11.834 1.66669Z" fill="#331B63"/>
<path d="M14 0H6C4.89734 0 4 0.897344 4 2V18C4 19.1027 4.89734 20 6 20H14C15.1027 20 16 19.1027 16 18V2C16 0.897344 15.1027 0 14 0ZM15 18C15 18.5523 14.5523 19 14 19H6C5.44766 19 5 18.5523 5 18V2C5 1.44766 5.44766 1 6 1H14C14.5523 1 15 1.44766 15 2V18Z" fill="#331B63"/>
<path d="M10 18.3333C10.5523 18.3333 11 17.8856 11 17.3333C11 16.781 10.5523 16.3333 10 16.3333C9.44772 16.3333 9 16.781 9 17.3333C9 17.8856 9.44772 18.3333 10 18.3333Z" fill="#331B63"/>
<path d="M8.16602 2.66669C8.44216 2.66669 8.66602 2.44283 8.66602 2.16669C8.66602 1.89054 8.44216 1.66669 8.16602 1.66669C7.88987 1.66669 7.66602 1.89054 7.66602 2.16669C7.66602 2.44283 7.88987 2.66669 8.16602 2.66669Z" fill="#331B63"/>
</svg>
