<svg width="20" height="20" viewBox="0 0 20 20" fill="none" xmlns="http://www.w3.org/2000/svg">
<g clip-path="url(#clip0_473_4951)">
<path d="M5.31654 19.9455L2.21889 19.5068C1.35975 19.3851 0.764942 18.5885 0.892442 17.7302L2.0792 9.73998C2.15084 9.2576 1.96264 8.76405 1.58803 8.45178L0.826544 7.81721C0.221114 7.31268 -0.0670498 6.51768 0.0745909 5.7424L0.788419 1.83463C0.978497 0.794241 1.884 0.0391235 2.94162 0.0391235H14.4921C15.3536 0.0391235 16.0546 0.740061 16.0546 1.60162V5.67326C16.0546 6.53483 15.3536 7.23576 14.4921 7.23576H13.511C10.7866 7.23576 8.51268 9.1908 8.10408 11.8844L7.08049 18.6327C6.95252 19.4762 6.16131 20.0649 5.31654 19.9455ZM2.94162 0.820374C2.2615 0.820374 1.6792 1.306 1.55697 1.97502L0.843106 5.8828C0.752052 6.38135 0.937325 6.8926 1.32666 7.21701L2.08818 7.85158C2.67076 8.33713 2.96342 9.10463 2.85201 9.85471L1.66525 17.8449C1.60154 18.2741 1.89889 18.6723 2.3285 18.7332L5.42615 19.1719C5.84854 19.2318 6.24408 18.9372 6.30811 18.5155L7.3317 11.7672C7.79533 8.71053 10.4249 6.45448 13.511 6.45448H14.4921C14.9228 6.45448 15.2733 6.10401 15.2733 5.67323V1.60162C15.2733 1.17084 14.9228 0.820374 14.4921 0.820374H2.94162Z" fill="#331B63"/>
<path d="M9.8707 12.5391H7.66992C7.45422 12.5391 7.2793 12.3642 7.2793 12.1485C7.2793 11.9328 7.45422 11.7579 7.66992 11.7579H9.8707C10.6084 11.7579 11.2086 11.1577 11.2086 10.42V7.16528C11.2086 6.94958 11.3835 6.77466 11.5992 6.77466C11.8149 6.77466 11.9898 6.94958 11.9898 7.16528V10.42C11.9898 11.5884 11.0392 12.5391 9.8707 12.5391Z" fill="#331B63"/>
<path d="M9.64462 6.28912H2.22274C1.98134 6.28912 1.79704 6.0717 1.83766 5.83303L2.50173 1.92678C2.53364 1.73897 2.69634 1.60162 2.88681 1.60162H9.64462C9.86032 1.60162 10.0352 1.77655 10.0352 1.99225V5.8985C10.0352 6.11424 9.86032 6.28912 9.64462 6.28912ZM2.6854 5.50787H9.25399V2.38287H3.21661L2.6854 5.50787Z" fill="#331B63"/>
<path d="M13.5508 7.23565C13.3351 7.23565 13.1602 7.06073 13.1602 6.84502V0.429749C13.1602 0.214045 13.3351 0.0391235 13.5508 0.0391235C13.7665 0.0391235 13.9414 0.214045 13.9414 0.429749V6.84498C13.9414 7.06072 13.7665 7.23565 13.5508 7.23565Z" fill="#331B63"/>
<path d="M2.93586 16.836H1.47852C1.26281 16.836 1.08789 16.6611 1.08789 16.4454C1.08789 16.2297 1.26281 16.0547 1.47852 16.0547H2.9359C3.17809 16.0547 3.38758 15.8741 3.42316 15.6345L4.03086 11.5415C4.07488 11.245 3.84652 10.9766 3.54359 10.9766H2.34883C2.13312 10.9766 1.9582 10.8017 1.9582 10.586C1.9582 10.3703 2.13312 10.1954 2.34883 10.1954H3.54355C3.91437 10.1954 4.26594 10.3564 4.50812 10.6372C4.75031 10.918 4.85801 11.2894 4.80355 11.6563L4.19586 15.7492C4.10395 16.3688 3.56227 16.836 2.93586 16.836Z" fill="#331B63"/>
<path d="M18.2648 6.45908C18.1123 6.30655 18.1123 6.0592 18.2648 5.90662C19.486 4.68545 19.4862 2.70858 18.2648 1.48721C18.1123 1.33467 18.1123 1.08733 18.2648 0.934749C18.4174 0.782249 18.6646 0.782249 18.8173 0.934749C20.3438 2.46127 20.344 4.93229 18.8173 6.45905C18.6646 6.61162 18.4174 6.61158 18.2648 6.45908Z" fill="#331B63"/>
<path d="M17.1594 5.35422C17.0068 5.20168 17.0068 4.95437 17.1593 4.80179C17.7699 4.19105 17.7701 3.20281 17.1593 2.59207C17.0068 2.43953 17.0068 2.19219 17.1593 2.03961C17.3119 1.88711 17.5592 1.88711 17.7118 2.03961C18.6277 2.95562 18.6278 4.43804 17.7118 5.35418C17.5593 5.50672 17.3119 5.50679 17.1594 5.35422Z" fill="#331B63"/>
</g>
<defs>
<clipPath id="clip0_473_4951">
<rect width="20" height="20" fill="white"/>
</clipPath>
</defs>
</svg>
