<svg width="12" height="8" viewBox="0 0 12 8" fill="none" xmlns="http://www.w3.org/2000/svg">
<path d="M6.46824 7.33355L11.8083 1.9934C11.9319 1.86989 12 1.70501 12 1.5292C12 1.3534 11.9319 1.18852 11.8083 1.06501L11.4151 0.671749C11.1589 0.415848 10.7425 0.415848 10.4867 0.671748L6.00249 5.156L1.51326 0.666772C1.38965 0.543261 1.22487 0.475067 1.04916 0.475067C0.873261 0.475067 0.708483 0.543261 0.584776 0.666772L0.191707 1.06004C0.068098 1.18365 9.15499e-07 1.34843 9.07814e-07 1.52423C9.00129e-07 1.70003 0.068098 1.86491 0.191707 1.98842L5.53664 7.33355C5.66064 7.45735 5.8262 7.52535 6.0022 7.52496C6.17888 7.52535 6.34434 7.45735 6.46824 7.33355Z" fill="#383838"/>
</svg>
