<svg width="45" height="45" viewBox="0 0 45 45" fill="none" xmlns="http://www.w3.org/2000/svg">
<rect x="0.5" y="0.5" width="44" height="44" rx="4.5" fill="white"/>
<rect x="0.5" y="0.5" width="44" height="44" rx="4.5" stroke="#E5E5E5"/>
<path d="M14.8791 32.0001C14.7052 32.0001 14.5353 31.9486 14.3907 31.852C14.2461 31.7555 14.1334 31.6182 14.0669 31.4576C14.0004 31.297 13.983 31.1202 14.0169 30.9497C14.0508 30.7792 14.1346 30.6226 14.2575 30.4996L30.4997 14.2575C30.6645 14.0926 30.8881 14 31.1213 14C31.3544 14 31.578 14.0926 31.7428 14.2575C31.9077 14.4223 32.0003 14.6459 32.0003 14.879C32.0003 15.1122 31.9077 15.3357 31.7428 15.5006L15.5006 31.7428C15.4191 31.8245 15.3222 31.8893 15.2155 31.9335C15.1089 31.9776 14.9945 32.0003 14.8791 32.0001Z" fill="#E5E5E5"/>
<path d="M31.1212 32.0001C31.0058 32.0003 30.8914 31.9776 30.7848 31.9335C30.6781 31.8893 30.5812 31.8245 30.4996 31.7428L14.2575 15.5006C14.0926 15.3357 14 15.1122 14 14.879C14 14.6459 14.0926 14.4223 14.2575 14.2575C14.4223 14.0926 14.6459 14 14.879 14C15.1122 14 15.3357 14.0926 15.5006 14.2575L31.7428 30.4996C31.8657 30.6226 31.9495 30.7792 31.9834 30.9497C32.0173 31.1202 31.9999 31.297 31.9334 31.4576C31.8668 31.6182 31.7542 31.7555 31.6096 31.852C31.465 31.9486 31.2951 32.0001 31.1212 32.0001Z" fill="#E5E5E5"/>
</svg>
