<svg width="15" height="9" viewBox="0 0 15 9" fill="none" xmlns="http://www.w3.org/2000/svg">
<path d="M6.9147 8.66691L0.239632 1.99172C0.0851214 1.83733 6.72031e-08 1.63124 5.75973e-08 1.41148C4.79915e-08 1.19173 0.0851213 0.985633 0.239632 0.831244L0.731092 0.339663C1.05133 0.0197873 1.57182 0.0197873 1.89157 0.339663L7.49689 5.94498L13.1084 0.333443C13.2629 0.179054 13.4689 0.0938104 13.6885 0.0938104C13.9084 0.0938104 14.1144 0.179054 14.269 0.333443L14.7604 0.825024C14.9149 0.979535 15 1.18551 15 1.40526C15 1.62502 14.9149 1.83111 14.7604 1.9855L8.0792 8.66691C7.9242 8.82167 7.71726 8.90667 7.49726 8.90618C7.2764 8.90667 7.06958 8.82167 6.9147 8.66691Z" fill="#5CCDF8"/>
</svg>
