<svg width="35" height="35" viewBox="0 0 35 35" fill="none" xmlns="http://www.w3.org/2000/svg">
<rect x="0.5" y="0.5" width="34" height="34" rx="17" fill="white"/>
<rect x="0.5" y="0.5" width="34" height="34" rx="17" stroke="#3B5998"/>
<path d="M15.4848 18.592C15.4218 18.592 14.0358 18.592 13.4058 18.592C13.0698 18.592 12.9648 18.466 12.9648 18.151C12.9648 17.311 12.9648 16.45 12.9648 15.61C12.9648 15.274 13.0908 15.169 13.4058 15.169H15.4848C15.4848 15.106 15.4848 13.888 15.4848 13.321C15.4848 12.481 15.6318 11.683 16.0518 10.948C16.4928 10.192 17.1228 9.688 17.9208 9.394C18.4458 9.205 18.9708 9.121 19.5378 9.121H21.5958C21.8898 9.121 22.0158 9.247 22.0158 9.541V11.935C22.0158 12.229 21.8898 12.355 21.5958 12.355C21.0288 12.355 20.4618 12.355 19.8948 12.376C19.3278 12.376 19.0338 12.649 19.0338 13.237C19.0128 13.867 19.0338 14.476 19.0338 15.127H21.4698C21.8058 15.127 21.9318 15.253 21.9318 15.589V18.13C21.9318 18.466 21.8268 18.571 21.4698 18.571C20.7138 18.571 19.0968 18.571 19.0338 18.571V25.417C19.0338 25.774 18.9288 25.9 18.5508 25.9C17.6688 25.9 16.8078 25.9 15.9258 25.9C15.6108 25.9 15.4848 25.774 15.4848 25.459C15.4848 23.254 15.4848 18.655 15.4848 18.592Z" fill="#3B5998"/>
</svg>
