<svg width="35" height="35" viewBox="0 0 35 35" fill="none" xmlns="http://www.w3.org/2000/svg">
<rect x="0.5" y="0.5" width="34" height="34" rx="17" fill="white"/>
<rect x="0.5" y="0.5" width="34" height="34" rx="17" stroke="#5CCDF8"/>
<path fill-rule="evenodd" clip-rule="evenodd" d="M16.5166 20.3771C16.5373 20.3875 16.5684 20.3875 16.5684 20.3875V20.4082C16.5994 20.4082 16.6614 20.3668 16.6614 20.3668L17.7787 19.2495C17.7894 19.2388 17.8 19.2288 17.8104 19.2192C17.8401 19.1915 17.8667 19.1665 17.8822 19.1358C17.9028 19.0944 17.9131 19.053 17.8925 19.0116C17.8718 18.9703 17.8408 18.9289 17.7994 18.9289C17.3752 18.8357 16.9924 18.6288 16.6821 18.3185C16.3201 17.9668 16.1028 17.5013 16.0511 16.9737C15.9891 16.322 16.2167 15.6806 16.6821 15.2151L19.6097 12.2876C20.4373 11.46 21.8855 11.46 22.713 12.2876C23.1268 12.7117 23.3544 13.26 23.3544 13.8497C23.3544 14.4393 23.1268 14.9979 22.713 15.4117L21.3786 16.7358C21.3476 16.7668 21.3372 16.8185 21.3476 16.8599C21.4717 17.3048 21.5441 17.7703 21.5441 18.2358C21.5441 18.4633 21.5338 18.6599 21.5027 18.8254C21.5027 18.8771 21.5234 18.9392 21.5752 18.9599C21.6269 18.9909 21.689 18.9805 21.7304 18.9392L23.9958 16.6841C25.5578 15.1117 25.5578 12.5669 23.9958 11.0049C22.4338 9.44283 19.889 9.44283 18.3269 11.0049L15.3994 13.9324C15.1408 14.191 14.9339 14.4703 14.7787 14.7496C14.7753 14.7531 14.7707 14.7565 14.7661 14.76C14.7569 14.7669 14.7477 14.7738 14.7477 14.7807C14.1063 15.9289 14.0546 17.3151 14.6236 18.4944C14.8201 18.8978 15.0684 19.2599 15.3994 19.5909C15.7201 19.9219 16.1028 20.1909 16.5166 20.3771ZM11.0133 23.9967C11.7995 24.7726 12.8236 25.1657 13.8477 25.1657L13.8167 25.1761C14.8408 25.1761 15.8752 24.783 16.6511 24.0071L19.5786 21.0796C20.1165 20.5417 20.4889 19.8796 20.6544 19.1452L20.7165 18.69C20.7372 18.5866 20.7372 18.4831 20.7372 18.3797V18.3383V18.2451V17.9659C20.7372 17.8624 20.7269 17.759 20.7062 17.6762C20.6958 17.5624 20.6751 17.4693 20.6544 17.3762C20.6338 17.2728 20.6028 17.1589 20.5614 17.0348C20.3855 16.4452 20.0545 15.8866 19.589 15.4211C19.2786 15.1107 18.8959 14.8418 18.4821 14.6452C18.4407 14.6142 18.3373 14.6659 18.3373 14.6659L17.2201 15.7832C17.189 15.8142 17.1476 15.8555 17.1166 15.9176C17.0959 15.9487 17.0959 15.9901 17.1166 16.0314C17.1373 16.0728 17.1683 16.1038 17.2097 16.1038C17.6339 16.1866 18.0166 16.3934 18.3269 16.7038C18.7407 17.1279 18.9683 17.6865 18.958 18.2969C18.9476 18.6693 18.8545 19.0313 18.6786 19.3416C18.6372 19.4141 18.5856 19.4969 18.5028 19.5899C18.4614 19.652 18.4097 19.7244 18.3269 19.8072L15.3994 22.7347C14.9856 23.1382 14.427 23.3658 13.8477 23.3658C13.2684 23.3658 12.6994 23.1382 12.296 22.7347C11.8822 22.3106 11.6546 21.7623 11.6546 21.1727C11.6546 20.5831 11.8822 20.0245 12.296 19.6106L13.6305 18.2762C13.6615 18.2348 13.6718 18.1831 13.6615 18.1417C13.4546 17.5003 13.3925 16.8486 13.4856 16.1969C13.496 16.1452 13.4649 16.0831 13.4132 16.0624C13.3718 16.0314 13.2684 16.0831 13.2684 16.0831L11.0133 18.3279C10.2478 19.0831 9.83398 20.0968 9.83398 21.1624C9.83398 22.2279 10.2581 23.2416 11.0133 23.9967Z" fill="#5CCDF8"/>
</svg>
