<svg width="43" height="43" viewBox="0 0 43 43" fill="none" xmlns="http://www.w3.org/2000/svg">
<rect x="0.5" y="0.5" width="42" height="42" rx="21" fill="white"/>
<rect x="0.5" y="0.5" width="42" height="42" rx="21" stroke="#0088CC"/>
<g clip-path="url(#clip0_558_6680)">
<path d="M19.6705 23.7535L19.3893 27.7088C19.7916 27.7088 19.9659 27.536 20.1748 27.3284L22.0611 25.5257L25.9697 28.3881C26.6865 28.7876 27.1916 28.5772 27.385 27.7286L29.9505 15.7068L29.9513 15.7061C30.1786 14.6464 29.568 14.232 28.8696 14.492L13.7892 20.2656C12.76 20.6651 12.7756 21.2389 13.6143 21.4988L17.4697 22.698L26.4252 17.0944C26.8466 16.8153 27.2298 16.9697 26.9146 17.2488L19.6705 23.7535Z" fill="#0088CC"/>
</g>
<defs>
<clipPath id="clip0_558_6680">
<rect width="17.0001" height="14.1667" fill="white" transform="translate(13 14.4166)"/>
</clipPath>
</defs>
</svg>
