<svg width="43" height="43" viewBox="0 0 43 43" fill="none" xmlns="http://www.w3.org/2000/svg">
<rect x="0.5" y="0.5" width="42" height="42" rx="21" fill="white"/>
<rect x="0.5" y="0.5" width="42" height="42" rx="21" stroke="#7E539E"/>
<path d="M23.4194 11.9H19.5794C15.8738 11.9 12.8594 14.9144 12.8594 18.62V21.5C12.8594 24.104 14.3594 26.4632 16.6994 27.5744V30.7832C16.6994 31.0616 17.0474 31.2056 17.2442 31.0088L20.033 28.2224H23.4194C27.125 28.2224 30.1394 25.208 30.1394 21.5V18.62C30.1394 14.9144 27.125 11.9 23.4194 11.9ZM25.9346 24.4955L24.9626 25.4459C23.9402 26.4467 21.2714 25.3043 18.9194 22.9019C16.5674 20.4971 15.5354 17.8043 16.5074 16.8035L17.4794 15.8531C17.837 15.5027 18.4442 15.5099 18.845 15.8675L20.2466 17.3003C20.7458 17.8115 20.5346 18.6683 19.8746 18.8651C19.4186 19.0115 19.109 19.5131 19.2554 19.9691C19.4978 21.0347 20.849 22.3667 21.857 22.6307C22.3106 22.7363 22.8194 22.4891 22.9778 22.0355C23.1866 21.3803 24.0482 21.1859 24.5498 21.6995L25.949 23.1299C26.2994 23.4872 26.2946 24.0947 25.9346 24.4955ZM22.373 16.46C22.277 16.46 22.181 16.4648 22.0874 16.4768C21.9122 16.496 21.7538 16.3688 21.7346 16.1936C21.7154 16.0184 21.8426 15.86 22.0178 15.8408C22.1354 15.8264 22.2554 15.8216 22.373 15.8216C24.137 15.8216 25.5722 17.2568 25.5722 19.0208C25.5722 19.1384 25.5674 19.2584 25.553 19.376C25.5338 19.5488 25.373 19.6784 25.2002 19.6592C25.0274 19.64 24.8978 19.4792 24.917 19.3064C24.9266 19.2128 24.9338 19.1168 24.9338 19.0208C24.9338 17.6096 23.7842 16.46 22.373 16.46ZM24.293 19.0208C24.293 19.196 24.1466 19.34 23.9714 19.34C23.7986 19.34 23.6522 19.196 23.6522 19.0208C23.6522 18.3152 23.0786 17.7416 22.373 17.7416C22.1954 17.7416 22.0514 17.5976 22.0514 17.42C22.0514 17.2448 22.1954 17.1008 22.373 17.1008C23.4314 17.1008 24.293 17.9624 24.293 19.0208ZM26.7338 20.0552C26.693 20.228 26.5082 20.336 26.3378 20.2904C26.1722 20.2448 26.0714 20.072 26.1098 19.9064C26.1794 19.6184 26.213 19.3208 26.213 19.0208C26.213 16.904 24.4898 15.1808 22.373 15.1808C22.2746 15.1808 22.1738 15.1832 22.0754 15.1928C21.9002 15.2048 21.7466 15.0728 21.7322 14.8976C21.7202 14.72 21.8522 14.5664 22.0274 14.5544C22.1426 14.5448 22.2578 14.54 22.373 14.54C24.8426 14.54 26.8538 16.5512 26.8538 19.0208C26.8538 19.3688 26.813 19.7168 26.7338 20.0552Z" fill="#7E539E"/>
</svg>
