<svg width="35" height="35" viewBox="0 0 35 35" fill="none" xmlns="http://www.w3.org/2000/svg">
<g clip-path="url(#clip0_124_333)">
<path d="M17.5 0.546875C7.83266 0.546875 0 8.13477 0 17.5C0 26.8652 7.83266 34.4531 17.5 34.4531C27.1673 34.4531 35 26.8652 35 17.5C35 8.13477 27.1673 0.546875 17.5 0.546875ZM25.6149 12.0791C25.3538 14.7588 24.2107 21.2666 23.6321 24.2676C23.3851 25.5391 22.9052 25.9629 22.4395 26.0039C21.4234 26.0928 20.6542 25.3545 19.6663 24.7256C18.128 23.748 17.253 23.1396 15.7641 22.1826C14.0353 21.082 15.1573 20.4736 16.1381 19.4824C16.3992 19.2227 20.873 15.2783 20.9577 14.9229C20.9718 14.875 20.9788 14.7109 20.873 14.6221C20.7671 14.5332 20.619 14.5674 20.5131 14.5879C20.3579 14.6198 17.8975 16.1943 13.1321 19.3115C12.4358 19.7764 11.8031 20.002 11.2339 19.9883C10.6058 19.9746 9.40625 19.6465 8.51008 19.3662C7.41633 19.0244 6.54133 18.8398 6.61895 18.252C6.65659 17.9466 7.09173 17.6344 7.9244 17.3154C13.0239 15.1644 16.4251 13.7448 18.128 13.0566C22.9899 11.1016 23.999 10.7598 24.6552 10.7461C24.8034 10.7461 25.121 10.7803 25.3327 10.9443C25.4708 11.062 25.5589 11.2253 25.5796 11.4023C25.6178 11.6259 25.6296 11.8529 25.6149 12.0791Z" fill="#229EDA"/>
</g>
<defs>
<clipPath id="clip0_124_333">
<rect width="35" height="35" fill="white"/>
</clipPath>
</defs>
</svg>
