<svg width="81" height="40" viewBox="0 0 81 40" fill="none" xmlns="http://www.w3.org/2000/svg">
<path fill-rule="evenodd" clip-rule="evenodd" d="M12.5494 0H3.42264V0.570417H0V8.55633H3.42264V31.3732H0V39.9296L3.42264 39.9296H12.5494L21.6761 39.9296C24.5282 39.9296 35.3662 34.2254 35.3662 19.3944C35.3662 7.52957 27.3803 1.9014 23.3873 0.570417H12.5494V0ZM12.5494 8.55633V31.3732H18.8239C21.4859 30.2324 26.8099 26.2394 26.8099 19.3944C26.8099 12.5493 21.4859 9.3169 18.8239 8.55633H12.5494ZM80.9999 0V9.12676H77.577V30.8028H80.9999V39.9295L77.577 39.9296H68.4502L63.8872 39.9295V30.8028H68.4502V9.12676H63.8872V0H68.4502H77.577H80.9999ZM62.7461 9.12676V0H47.9158H38.7891H35.3658V9.12676H38.7891V30.8027H35.3658V39.9295H38.7891V39.9296H47.9158V39.9295H52.4785V30.8027H47.9158V25.6175L57.2588 25.6175V15.3499L47.9158 15.3499V9.12676L62.7461 9.12676Z" fill="#5CCDF8"/>
</svg>
